<?xml version="1.0" standalone="no"?>
<!DOCTYPE svg PUBLIC "-//W3C//DTD SVG 20010904//EN"
 "http://www.w3.org/TR/2001/REC-SVG-20010904/DTD/svg10.dtd">
<svg version="1.0" xmlns="http://www.w3.org/2000/svg"
 width="460.000000pt" height="460.000000pt" viewBox="0 0 460.000000 460.000000"
 preserveAspectRatio="xMidYMid meet">
<metadata>
Created by potrace 1.14, written by Peter Selinger 2001-2017
</metadata>
<g transform="translate(0.000000,460.000000) scale(0.100000,-0.100000)"
fill="#000000" stroke="none">
<path d="M0 2305 c0 -1262 3 -2296 8 -2297 4 -1 135 -2 292 -3 198 -1 287 1
292 9 5 8 8 7 8 -2 0 -9 19 -11 78 -6 42 3 87 6 100 7 12 0 22 5 22 10 0 4 4
6 9 3 5 -4 12 0 14 6 4 8 8 4 13 -10 5 -19 13 -22 37 -20 17 2 33 10 35 18 4
12 3 13 -10 2 -15 -12 -48 -7 -48 7 0 4 6 13 13 20 10 10 3 11 -33 6 -25 -4
-61 -11 -80 -16 -43 -11 -56 -11 -46 -1 4 4 13 7 19 7 7 0 11 8 9 18 -2 12 4
17 18 17 13 0 18 4 15 11 -7 10 -35 8 -101 -6 -24 -5 -33 -3 -38 10 -5 14 -9
15 -21 5 -8 -6 -20 -8 -26 -4 -7 4 -9 3 -5 -4 3 -6 2 -13 -3 -17 -14 -8 -5 31
13 57 12 17 16 19 16 6 0 -9 -6 -19 -12 -21 -10 -4 -10 -6 -1 -6 6 -1 15 4 18
9 5 8 12 7 23 -2 16 -12 16 -11 2 6 -16 20 -22 79 -8 70 5 -3 6 -10 3 -15 -3
-5 1 -6 9 -3 9 3 13 11 9 17 -3 5 -1 7 5 3 5 -3 13 0 15 6 4 10 6 10 6 1 1 -7
8 -10 18 -6 11 4 14 3 9 -6 -5 -7 -14 -10 -20 -8 -7 3 -13 -1 -13 -8 0 -11 5
-12 21 -2 12 6 25 10 30 9 5 -2 4 4 -4 13 -11 13 -10 18 4 33 18 21 21 42 6
42 -5 0 -10 7 -10 15 0 8 8 15 18 15 14 0 15 2 2 10 -12 8 -12 10 3 16 9 3 15
10 12 14 -3 4 2 11 11 14 8 3 13 2 10 -3 -3 -5 0 -11 7 -14 7 -2 18 6 24 19 6
13 7 22 3 19 -5 -3 -11 -1 -15 5 -3 5 -1 10 5 10 6 0 9 4 6 8 -3 5 1 9 9 9 8
0 12 -5 8 -10 -3 -5 4 -4 16 2 11 7 21 9 21 5 0 -4 11 5 25 20 24 26 65 36 65
15 0 -6 7 -3 16 5 18 19 142 24 397 16 48 -1 90 -6 92 -11 3 -4 31 -10 63 -14
50 -5 95 -14 154 -31 12 -4 16 -1 13 8 -2 7 -7 26 -9 41 -4 24 -3 27 9 17 8
-7 12 -17 8 -23 -4 -6 -1 -7 8 -2 12 8 12 6 1 -8 -24 -29 3 -42 48 -25 8 4 32
9 53 13 30 5 36 9 28 19 -8 10 -5 15 12 23 12 6 29 9 38 8 17 -3 20 17 5 32
-4 4 -6 2 -4 -6 2 -10 -6 -15 -22 -15 -15 0 -25 5 -26 14 -1 8 -2 18 -4 23 -1
4 -3 13 -4 20 -1 6 -10 11 -21 9 -20 -4 -20 -3 0 13 11 9 14 13 6 9 -11 -5
-13 -3 -8 10 5 14 3 17 -8 12 -18 -7 -20 5 -3 22 9 9 8 12 -6 12 -9 0 -14 5
-11 10 3 6 2 10 -2 10 -12 0 -42 52 -47 81 -3 13 -5 24 -6 24 -1 0 -3 8 -5 19
-2 10 -13 28 -24 40 -14 15 -17 26 -10 38 6 11 6 19 0 23 -6 3 -8 12 -6 20 15
47 15 47 29 36 7 -6 16 -8 19 -4 8 8 48 -27 42 -37 -2 -4 2 -7 10 -7 21 0 19
10 -5 25 -12 7 -18 17 -14 23 3 6 11 3 19 -8 13 -17 14 -17 20 0 6 14 10 15
22 5 23 -19 53 -20 60 -2 4 11 8 12 13 4 7 -12 81 -21 157 -20 39 1 45 -16 47
-119 1 -36 4 -71 8 -77 10 -14 20 -74 13 -74 -3 0 -10 10 -16 22 -8 21 -9 20
-5 -7 4 -28 3 -28 -10 -10 -8 10 -14 14 -14 8 0 -13 25 -35 36 -31 5 2 11 -2
12 -7 2 -6 8 -18 13 -27 6 -10 5 -19 -1 -23 -5 -3 -7 -12 -4 -20 4 -8 10 -12
15 -9 5 3 9 -6 9 -20 0 -14 5 -26 11 -26 16 0 60 49 64 71 2 11 7 24 11 31 4
6 13 46 19 87 7 42 18 91 26 108 17 41 7 53 -50 60 -22 3 -41 8 -42 12 -7 56
-12 121 -10 156 1 23 59 90 78 90 6 0 15 -4 20 -9 4 -5 3 -7 -3 -3 -7 4 -15
-13 -23 -45 -10 -44 -9 -54 6 -77 10 -14 16 -30 14 -36 -8 -25 -9 -45 -3 -44
23 4 42 -2 37 -11 -11 -17 23 -11 41 8 17 16 18 16 11 0 -5 -14 -1 -18 14 -18
13 0 18 4 13 12 -5 7 -3 8 7 3 7 -5 24 -10 38 -11 23 -3 121 -96 121 -115 0
-11 -41 -90 -57 -109 -7 -8 -14 -19 -14 -25 0 -5 -5 -16 -11 -23 -6 -7 -8 -15
-5 -19 4 -3 2 -12 -5 -20 -6 -7 -9 -16 -6 -18 3 -3 13 12 24 32 10 21 24 41
31 46 6 4 17 23 23 43 8 24 17 34 26 30 16 -6 21 3 28 51 2 17 7 37 11 42 3 6
-1 14 -9 17 -11 4 -13 11 -7 22 11 22 12 112 1 112 -4 0 -6 9 -3 20 3 11 0 20
-6 20 -6 0 -8 -8 -4 -17 4 -13 0 -12 -17 6 -22 22 -22 25 -7 36 18 13 18 44 0
67 -6 7 -17 27 -26 43 -26 51 -89 107 -114 102 -13 -2 -23 -3 -23 -1 0 2 24
27 52 57 29 29 87 91 128 136 41 46 80 88 86 94 26 29 84 120 79 125 -3 4 -36
-25 -73 -63 -37 -39 -70 -69 -74 -68 -4 2 -10 -6 -13 -17 -4 -11 -11 -20 -17
-20 -6 0 -20 -9 -32 -20 -84 -78 -83 -78 -102 -61 -14 12 -15 12 -7 1 17 -24
12 -48 -9 -42 -10 2 -24 -1 -32 -7 -8 -7 -19 -10 -24 -9 -6 2 -18 -6 -27 -17
-16 -20 -16 -20 -6 1 7 15 7 25 -2 34 -7 7 -7 10 -2 7 6 -3 17 -2 25 3 8 5 19
5 25 0 6 -5 17 -5 25 0 10 6 11 10 3 10 -8 0 -10 7 -6 18 6 14 4 15 -9 4 -13
-10 -18 -10 -24 -1 -5 8 -3 9 6 4 9 -6 11 -4 6 4 -5 7 -14 10 -21 7 -7 -2 -18
1 -24 7 -10 9 -12 9 -9 -3 3 -13 -6 -15 -30 -7 -4 1 -8 -2 -10 -8 -1 -5 2 -10
7 -10 5 0 13 -4 18 -9 5 -5 3 -6 -4 -2 -7 4 -13 2 -13 -3 0 -6 5 -11 10 -11 6
0 10 -5 10 -11 0 -8 -4 -8 -13 0 -10 8 -17 7 -27 -2 -12 -10 -12 -9 -2 4 10
14 10 20 -3 33 -9 9 -12 16 -6 16 6 0 8 6 5 14 -3 9 5 16 23 21 15 5 31 8 34
7 3 0 6 6 6 14 0 8 -3 12 -5 9 -3 -3 -14 2 -24 12 -10 9 -18 13 -18 8 0 -4 8
-14 18 -22 16 -14 16 -14 -1 -9 -12 4 -16 2 -11 -7 4 -6 4 -9 -1 -5 -11 11
-47 -11 -39 -24 4 -6 3 -8 -4 -5 -7 5 -7 14 1 31 8 16 14 21 19 13 7 -12 9 -9
12 23 0 8 7 14 15 12 7 -2 22 5 32 14 10 9 22 13 27 10 6 -3 13 1 16 10 5 14
9 14 23 3 12 -10 14 -10 9 -1 -4 7 -2 12 6 12 9 0 9 3 -2 10 -12 7 -10 9 7 7
12 0 19 -5 16 -10 -7 -12 37 11 59 31 10 8 18 12 18 9 0 -8 94 34 102 46 10
16 -3 39 -18 33 -8 -3 -13 0 -11 7 1 7 -3 11 -9 10 -6 -1 -9 8 -7 22 4 16 -1
26 -15 34 -22 12 -33 6 -25 -15 3 -10 0 -12 -10 -8 -8 3 -18 0 -22 -5 -8 -13
-25 -5 -25 12 0 7 4 6 10 -3 5 -8 10 -10 10 -4 0 19 -22 33 -39 24 -13 -7 -17
-4 -18 13 -2 18 0 19 8 7 9 -13 10 -13 6 0 -2 8 -10 14 -17 12 -18 -4 -52 29
-46 45 3 7 1 15 -4 18 -10 6 -15 -9 -10 -30 1 -5 -2 -7 -6 -3 -4 4 -14 0 -22
-10 -10 -12 -9 -9 2 10 15 26 15 27 -7 22 -53 -12 -62 -10 -61 16 1 14 -3 28
-10 32 -8 6 -7 8 2 8 7 0 11 4 7 9 -3 5 -1 12 4 15 5 4 12 2 15 -3 4 -5 2 -12
-4 -16 -7 -4 -6 -14 2 -28 6 -12 11 -23 10 -24 -10 -15 2 -12 14 3 8 10 13 13
9 7 -4 -9 -1 -11 10 -6 12 4 13 8 5 13 -8 5 -8 9 3 13 8 3 21 0 28 -6 8 -7 3
0 -10 15 -25 29 -36 29 -36 1 0 -9 -6 -18 -12 -20 -7 -3 -13 0 -13 6 0 6 4 11
9 11 6 0 8 9 6 20 -2 11 -1 19 3 19 21 -3 32 2 26 14 -5 9 -4 9 6 0 15 -14 43
-5 33 11 -4 6 1 5 10 -3 9 -7 17 -9 17 -4 0 5 6 10 14 10 8 0 12 -7 9 -16 -2
-9 12 2 32 24 25 28 35 47 32 62 -2 12 -1 20 3 18 10 -6 23 26 15 34 -3 3 -10
-1 -15 -9 -9 -13 -10 -13 -11 0 -1 8 -1 18 0 22 0 5 -2 7 -7 6 -4 -1 -18 4
-31 11 -19 11 -22 11 -15 -1 4 -7 -1 -6 -12 4 -24 21 -35 23 -45 7 -4 -8 -11
-10 -16 -6 -4 5 -2 12 6 16 7 5 13 12 13 17 0 5 16 16 36 25 l34 16 -36 7
c-23 4 -34 11 -30 18 5 7 0 9 -15 5 -23 -6 -71 14 -91 38 -6 7 -25 17 -41 20
-16 4 -29 11 -29 16 0 6 -4 7 -10 4 -5 -3 -10 2 -10 12 0 18 6 19 73 11 39 -4
97 -10 127 -12 30 -3 66 -7 80 -10 43 -11 103 -19 145 -20 27 -1 39 -6 37 -15
-2 -10 4 -12 23 -7 22 6 26 3 31 -21 5 -26 9 -28 52 -28 40 0 47 -3 50 -21 3
-18 7 -21 29 -15 15 4 28 14 31 22 3 11 2 12 -6 0 -9 -13 -19 -5 -17 14 3 26
17 55 25 50 5 -3 11 -1 15 4 6 10 -33 6 -43 -4 -3 -2 -12 1 -20 8 -12 9 -14 9
-8 0 5 -9 -5 -12 -39 -10 -25 1 -45 5 -45 10 0 4 -6 7 -14 7 -8 0 -16 6 -19
14 -4 9 -14 12 -26 9 -13 -3 -21 -1 -21 6 0 7 -4 10 -9 6 -5 -3 -12 -1 -16 5
-4 7 -13 6 -27 -1 -18 -10 -20 -9 -14 6 5 15 4 16 -9 5 -14 -11 -19 -7 -16 12
2 15 -17 8 -23 -8 -4 -12 -10 -13 -19 -6 -6 6 -16 11 -22 12 -5 0 -9 13 -8 27
l2 26 -15 -22 c-9 -12 -22 -20 -30 -17 -7 3 -18 -3 -24 -12 -11 -16 -11 -16
-6 1 5 16 -3 21 -21 15 -5 -2 -7 -7 -5 -11 1 -5 -2 -6 -8 -2 -6 3 -8 10 -5 14
2 5 -4 16 -15 26 -20 18 -20 18 0 32 22 16 26 43 8 61 -9 9 -9 12 1 12 11 0
11 3 0 18 -13 15 -12 16 3 3 10 -7 15 -17 12 -22 -3 -5 3 -9 12 -9 10 0 14 -3
11 -7 -4 -3 -2 -12 5 -20 6 -7 8 -16 4 -20 -3 -3 -6 -1 -6 5 0 7 -5 12 -11 12
-5 0 -7 -5 -3 -11 3 -6 0 -15 -7 -20 -11 -7 -11 -9 -1 -9 7 0 11 -4 7 -9 -3
-5 2 -17 11 -26 14 -13 19 -14 25 -3 5 7 9 9 9 3 0 -5 5 -3 10 5 9 13 10 13
10 0 0 -13 2 -13 9 -1 5 8 17 16 27 17 19 3 34 21 34 42 0 7 4 11 10 7 5 -3 6
-13 3 -22 -5 -13 -2 -15 11 -10 11 4 15 3 11 -4 -4 -6 -14 -8 -22 -5 -8 3 -11
1 -8 -4 4 -6 1 -9 -6 -8 -6 2 -14 -4 -16 -12 -4 -13 -3 -13 6 0 10 13 11 13
11 0 0 -13 1 -13 10 0 8 13 11 12 23 -4 13 -17 14 -15 11 23 -1 27 1 39 8 35
7 -4 8 -2 4 4 -12 19 3 35 20 21 11 -9 14 -8 14 5 0 9 7 19 15 22 8 4 12 10 9
15 -3 6 6 8 20 5 15 -3 39 2 54 10 15 7 35 14 45 14 9 0 17 5 17 10 0 15 -31
12 -77 -10 -37 -16 -43 -17 -43 -4 0 8 -4 13 -9 10 -5 -4 -7 3 -4 14 4 13 -1
26 -13 35 -25 19 -34 19 -34 0 0 -8 -7 -15 -16 -15 -9 0 -12 -5 -8 -12 4 -7
-2 -4 -14 6 -12 11 -19 22 -16 25 4 3 9 1 11 -6 6 -16 33 -5 33 14 0 8 -5 11
-11 7 -17 -10 -79 -12 -85 -2 -3 4 -10 6 -15 3 -5 -3 -6 2 -2 11 6 16 7 16 18
0 16 -21 26 -21 19 2 -5 14 -4 15 5 2 9 -13 11 -13 11 3 0 9 5 17 11 17 5 0 8
-4 4 -9 -3 -5 -1 -12 4 -16 6 -3 15 4 21 15 6 11 8 20 4 20 -3 0 -1 7 6 15 6
8 9 19 6 24 -10 16 14 24 32 9 15 -12 16 -11 4 4 -8 9 -11 21 -8 27 3 5 -1 12
-9 15 -8 3 -14 11 -13 18 2 7 -2 12 -9 11 -7 -2 -10 4 -7 12 4 10 11 12 23 5
13 -6 18 -5 18 5 0 8 -5 13 -11 12 -7 -1 -12 18 -12 45 -1 33 2 46 10 41 6 -3
6 -1 -1 8 -7 7 -13 29 -13 48 0 19 -8 44 -17 55 -17 20 -17 20 1 6 18 -14 19
-14 9 5 -6 11 -9 31 -7 45 3 21 2 22 -7 8 -12 -22 -33 -24 -26 -3 4 8 2 17 -3
20 -6 4 -10 0 -10 -8 0 -8 -9 -17 -21 -20 -14 -4 -18 -10 -13 -19 5 -9 2 -9
-10 2 -10 8 -13 16 -8 18 7 2 4 11 -5 22 -15 17 -31 72 -17 58 3 -3 7 -14 8
-25 2 -10 7 -18 11 -18 11 0 14 44 4 51 -5 2 -6 11 -3 19 4 8 11 12 17 8 6 -4
8 0 4 10 -8 20 18 43 29 26 4 -7 3 -9 -4 -5 -6 3 -9 -1 -8 -11 2 -10 7 -16 12
-13 5 3 8 8 6 13 -1 4 3 7 9 7 8 0 7 6 -2 17 -8 9 -9 14 -3 10 7 -4 14 0 17 8
4 9 1 12 -7 9 -15 -6 -40 21 -32 34 6 11 -62 82 -78 82 -6 0 -4 -5 4 -10 8 -5
11 -10 5 -10 -15 1 -45 26 -45 38 0 5 -7 13 -16 16 -8 3 -13 2 -10 -3 3 -4 -6
-6 -20 -3 -16 3 -23 9 -20 18 3 8 0 13 -7 11 -7 -1 -11 8 -10 25 1 16 -4 29
-14 32 -13 5 -13 4 -4 -7 9 -11 7 -20 -8 -38 l-20 -24 5 28 c3 21 1 28 -8 24
-7 -2 -12 -10 -10 -16 1 -6 -3 -11 -9 -11 -6 0 -9 7 -6 15 4 8 2 17 -3 20 -6
4 -10 1 -10 -5 0 -6 -5 -8 -10 -5 -12 7 5 45 21 45 6 0 8 -4 5 -8 -2 -4 -1
-14 5 -22 7 -12 9 -10 9 7 0 12 -4 24 -9 27 -5 4 -8 17 -7 30 2 16 -1 23 -9
19 -7 -2 -12 -12 -10 -21 1 -9 0 -21 -4 -27 -3 -5 -8 3 -11 19 -3 16 -11 31
-18 32 -7 1 -8 0 -2 -3 5 -2 10 -9 10 -14 0 -6 -6 -7 -12 -3 -8 5 -8 2 1 -10
8 -9 10 -16 5 -15 -5 1 -18 -2 -28 -6 -13 -6 -21 -4 -24 3 -2 7 -8 10 -13 6
-5 -3 -9 0 -9 5 0 6 5 11 11 11 5 0 7 5 4 11 -4 6 -16 -1 -30 -17 -21 -25 -25
-26 -39 -11 -12 11 -13 17 -3 21 6 2 2 4 -10 2 -12 -1 -26 -6 -30 -11 -5 -4
-2 -5 6 0 10 5 12 4 7 -4 -4 -6 -12 -9 -17 -5 -5 3 -7 10 -4 15 4 5 -1 12 -9
15 -9 3 -16 10 -16 15 0 11 23 7 32 -6 4 -5 8 0 8 13 0 13 -6 22 -15 22 -8 0
-15 6 -15 13 0 9 -3 8 -9 -2 -6 -9 -11 -10 -15 -2 -4 6 -11 9 -15 7 -4 -3 -7
9 -6 25 0 31 12 39 21 14 5 -11 10 -12 26 -4 16 8 23 8 30 -2 8 -11 9 -10 5 2
-3 9 0 22 6 29 7 7 0 5 -15 -4 -15 -10 -29 -13 -32 -7 -3 5 0 12 6 14 10 4 10
6 1 6 -7 1 -13 6 -13 12 0 5 4 7 10 4 5 -3 10 -1 10 4 0 12 -1 12 -45 15 -22
1 -30 6 -30 20 0 11 -7 21 -15 24 -8 3 -12 1 -8 -3 4 -4 1 -17 -7 -29 -21 -30
-18 -42 5 -21 21 19 29 8 9 -12 -9 -9 -7 -11 5 -9 10 1 21 8 26 15 4 8 10 9
13 4 4 -6 0 -18 -7 -29 -8 -10 -12 -24 -9 -30 2 -7 -1 -15 -6 -19 -6 -3 -8
-11 -5 -17 4 -7 2 -8 -5 -4 -6 4 -8 12 -5 18 4 6 1 8 -7 6 -8 -3 -12 -12 -11
-19 9 -35 11 -51 5 -46 -3 4 -14 2 -25 -4 -18 -10 -19 -9 -3 20 8 17 13 32 10
32 -3 1 -9 3 -15 4 -5 1 -13 3 -16 4 -4 0 -1 8 6 16 6 8 8 20 4 27 -6 10 -4
10 9 0 9 -8 22 -10 28 -6 8 4 9 3 5 -4 -4 -7 -2 -12 3 -12 10 0 14 12 9 27 -4
10 -55 11 -70 1 -7 -4 -9 -8 -5 -8 4 0 3 -9 -3 -19 -7 -13 -7 -22 0 -26 5 -3
9 -14 9 -23 -1 -15 -2 -15 -6 1 -2 9 -9 14 -15 11 -6 -4 -8 -2 -5 3 4 6 0 13
-8 17 -10 3 -15 -1 -15 -11 0 -23 -13 -7 -17 20 -2 16 -1 18 6 8 7 -11 9 -11
14 0 4 10 6 10 6 2 1 -7 6 -13 11 -13 6 0 8 11 6 25 -3 14 -2 23 2 21 12 -7
44 22 37 33 -7 12 -26 15 -23 4 2 -5 -1 -9 -7 -9 -17 -2 -35 7 -35 18 0 7 5 6
13 -1 10 -8 17 -7 25 1 8 8 15 8 27 -2 9 -7 15 -8 15 -2 0 6 3 19 7 29 6 15 4
16 -8 6 -20 -16 -52 -10 -55 11 -2 16 -1 16 15 2 25 -23 38 -20 17 3 -16 17
-16 19 -2 17 9 -1 21 -7 27 -13 6 -6 18 -9 26 -6 12 5 12 7 1 15 -10 8 -10 9
2 5 8 -2 15 -9 15 -15 0 -13 9 -16 28 -9 8 4 7 6 -2 6 -12 1 -11 4 2 14 11 8
14 17 8 26 -8 13 -12 13 -27 0 -11 -9 -15 -9 -10 -1 4 7 1 12 -9 12 -9 0 -14
-4 -11 -9 3 -5 -1 -11 -8 -14 -17 -7 -40 16 -28 27 4 4 -1 13 -11 21 -14 10
-15 14 -3 18 7 3 24 -4 36 -15 16 -15 25 -17 33 -9 8 8 8 11 -1 11 -7 0 -12 5
-12 11 0 5 4 7 10 4 5 -3 7 0 4 8 -3 8 0 18 5 22 6 3 9 11 5 16 -3 5 -10 6
-16 3 -15 -10 1 39 18 52 7 6 11 14 8 17 -9 9 -46 -12 -39 -22 3 -5 -2 -11
-10 -15 -28 -10 -25 13 4 30 17 10 28 21 25 25 -2 4 0 11 6 14 6 4 10 3 9 -2
-3 -20 2 -23 23 -12 22 12 22 12 5 -14 -21 -32 -21 -38 -2 -31 8 4 15 2 15 -3
0 -17 -13 -23 -26 -12 -23 19 -25 -9 -2 -31 13 -12 16 -19 8 -15 -12 4 -16 -2
-17 -30 -1 -30 2 -35 23 -35 12 0 26 -5 30 -12 5 -7 2 -9 -8 -6 -10 4 -14 0
-13 -13 1 -20 15 -40 15 -22 0 15 27 10 43 -7 10 -12 9 -12 -5 -2 -11 9 -18
10 -23 2 -3 -5 0 -10 8 -10 14 0 17 -34 3 -47 -4 -5 -7 -3 -6 2 5 22 -1 35
-19 44 -14 8 -22 6 -35 -8 -15 -17 -15 -19 -1 -25 9 -3 13 -2 10 3 -3 5 -1 12
5 16 5 3 10 -1 10 -10 0 -9 4 -14 9 -10 5 3 13 -4 16 -16 6 -19 7 -20 21 -2
13 17 13 17 14 -2 0 -14 3 -16 11 -8 9 9 7 16 -5 29 -19 19 -17 23 14 29 17 3
20 1 15 -13 -5 -13 -2 -13 13 3 11 11 18 23 16 26 -2 3 3 6 11 6 11 0 12 -4 4
-13 -7 -9 -5 -18 10 -33 16 -16 20 -17 25 -5 3 8 2 12 -3 9 -13 -8 -22 10 -15
29 8 20 21 21 26 2 3 -13 6 -12 23 0 l20 16 -20 -4 c-12 -2 -20 3 -20 12 0 8
-4 20 -7 26 -5 7 4 11 25 10 l32 -1 0 -68 c0 -53 2 -64 11 -52 16 22 26 19 23
-7 -2 -13 0 -28 4 -35 9 -15 -2 -43 -18 -43 -8 0 -11 9 -8 24 3 14 -1 27 -9
31 -7 5 -10 5 -6 1 3 -4 2 -21 -2 -36 -5 -16 -5 -29 -2 -29 18 3 22 -3 13 -19
-7 -14 -6 -19 4 -19 7 0 11 7 7 15 -3 10 -1 13 6 8 7 -4 12 -17 12 -28 0 -22
10 -20 14 4 1 7 5 18 8 24 9 13 2 54 -10 66 -11 11 -3 60 9 52 5 -3 9 -15 9
-27 0 -16 3 -18 9 -8 6 9 11 10 15 2 4 -6 1 -14 -7 -16 -14 -6 -16 -32 -3 -53
4 -7 2 -12 -5 -12 -6 0 -1 -8 12 -19 19 -15 21 -22 11 -33 -9 -12 -9 -15 3
-15 7 0 14 3 13 6 -3 28 2 33 20 20 15 -13 16 -12 3 3 -7 10 -17 16 -21 13 -5
-3 -11 -1 -15 5 -3 5 5 14 18 19 30 12 41 27 27 36 -6 4 -9 1 -8 -6 2 -6 -2
-13 -8 -16 -6 -2 -11 3 -11 11 0 16 24 29 37 21 5 -3 7 3 5 12 -2 10 -4 18 -5
18 -1 0 -3 12 -4 27 0 14 -4 29 -7 32 -8 8 -4 -48 5 -62 5 -8 1 -12 -12 -12
-27 0 -34 11 -19 29 10 14 10 14 -5 3 -19 -15 -29 -4 -23 27 2 12 0 19 -6 16
-5 -4 -7 -11 -4 -16 7 -11 -8 -12 -19 -1 -4 4 -12 7 -17 7 -5 0 -9 3 -9 8 0 4
0 12 0 17 0 6 3 9 8 8 4 -2 7 1 7 7 0 5 -5 10 -12 11 -7 1 -12 -1 -12 -4 3
-19 -2 -34 -8 -28 -10 10 -11 66 -1 66 4 0 8 7 8 16 0 8 4 12 10 9 6 -3 10 -1
10 4 0 14 -6 14 -30 1 -13 -7 -21 -7 -25 0 -3 5 3 10 14 10 12 0 21 7 21 15 0
8 5 15 10 15 6 0 9 -4 8 -9 -2 -5 2 -9 7 -9 6 0 9 4 8 9 -2 4 5 5 14 2 12 -5
14 -3 8 7 -5 9 -4 11 4 6 8 -5 10 0 7 17 -3 16 1 24 10 24 8 0 10 -5 6 -11
-12 -18 -8 -49 8 -53 11 -3 12 -2 3 4 -10 7 -9 15 2 36 12 24 12 29 0 34 -8 3
-15 9 -15 14 0 6 10 4 23 -2 12 -6 19 -8 15 -4 -4 4 0 13 9 20 11 8 13 14 5
19 -7 4 -12 2 -12 -4 0 -6 -5 -8 -12 -4 -7 4 -8 3 -4 -4 4 -7 2 -12 -3 -12 -6
0 -11 5 -11 11 0 5 -5 7 -11 3 -6 -3 -15 0 -20 7 -6 11 -11 11 -21 1 -7 -7 -8
-12 -1 -12 12 0 12 -49 0 -67 -5 -7 -16 -13 -25 -12 -14 0 -13 2 3 9 11 5 16
9 11 9 -5 1 -2 9 5 18 12 15 12 16 -4 10 -10 -4 -21 -7 -23 -7 -3 0 -3 -4 0
-9 3 -5 -1 -11 -9 -15 -8 -3 -14 -2 -14 2 3 18 -2 24 -14 14 -13 -11 -42 -11
-53 1 -4 3 6 4 21 1 16 -3 24 -1 21 5 -4 5 -2 12 3 15 5 4 12 2 16 -3 3 -6 12
-8 20 -5 8 4 12 11 8 17 -4 6 0 8 9 4 14 -5 15 -1 8 24 -5 17 -5 31 1 35 6 3
8 12 5 19 -3 8 3 19 12 27 15 11 15 11 5 -2 -8 -10 -9 -21 -2 -30 8 -13 10
-13 18 0 5 8 8 17 6 20 -2 4 2 7 10 7 11 0 12 -4 4 -13 -5 -6 -8 -18 -7 -25 2
-8 -4 -13 -14 -11 -9 1 -19 -1 -21 -5 -3 -5 8 -8 23 -8 16 -1 28 2 28 5 -2 16
16 71 25 77 5 3 7 1 3 -5 -3 -6 -1 -14 6 -18 7 -4 10 -3 5 1 -11 13 45 46 59
34 8 -6 13 -5 17 6 4 8 13 12 21 9 8 -3 17 -1 21 5 4 7 -1 8 -12 4 -14 -5 -16
-3 -6 7 9 10 15 10 26 1 12 -9 16 -8 21 4 8 21 27 19 19 -2 -5 -15 -3 -14 10
2 8 11 14 23 11 26 -2 3 8 4 21 1 14 -2 31 1 39 7 11 9 15 7 19 -8 3 -13 11
-18 23 -16 11 2 23 4 27 4 5 1 5 7 1 14 -6 9 -4 9 8 -1 21 -17 56 -23 63 -11
4 5 12 9 18 9 7 0 6 -4 -3 -10 -8 -5 -10 -10 -4 -10 6 0 17 6 24 14 12 15 44
10 34 -5 -3 -5 0 -9 5 -9 6 0 11 4 11 9 0 6 12 6 32 1 17 -5 36 -6 42 -2 11 7
75 7 108 0 22 -5 51 -35 71 -75 9 -16 22 -35 31 -42 8 -7 18 -26 21 -42 4 -16
11 -29 16 -29 4 0 18 -33 30 -72 12 -40 25 -78 30 -83 4 -6 11 -31 15 -55 4
-25 13 -55 21 -66 7 -12 12 -35 11 -52 -1 -19 5 -39 17 -53 11 -12 14 -19 6
-14 -11 6 -13 2 -7 -19 5 -20 4 -26 -5 -20 -8 5 -9 3 -4 -6 11 -17 13 -200 3
-194 -5 3 -9 -4 -9 -15 -2 -28 -3 -34 -11 -46 -7 -12 -3 -219 7 -336 7 -85 -7
-181 -47 -324 -6 -22 -12 -49 -14 -60 -3 -21 -6 -39 -24 -115 -36 -160 -102
-309 -167 -378 -24 -25 -43 -48 -43 -50 0 -5 -28 -37 -92 -105 -27 -27 -48
-54 -48 -58 0 -5 -3 -9 -7 -9 -5 0 -8 -55 -7 -122 1 -79 -3 -126 -10 -130 -8
-5 -7 -8 2 -8 9 0 10 -5 4 -17 -8 -15 -25 -102 -27 -138 0 -5 -4 -16 -8 -22
-5 -7 -5 -13 0 -13 4 0 3 -4 -2 -8 -6 -4 -16 -34 -22 -67 -6 -33 -13 -71 -17
-85 -30 -127 -50 -203 -63 -247 -15 -49 -15 -54 0 -71 10 -10 14 -21 11 -24
-3 -4 -7 -12 -9 -20 -7 -34 -31 -78 -41 -78 -7 0 -15 -11 -18 -25 -4 -14 -10
-23 -15 -20 -27 16 -56 -108 -33 -141 4 -7 42 -10 105 -9 54 1 97 -2 97 -7 0
-5 -6 -6 -12 -2 -8 5 -7 0 2 -10 14 -18 15 -18 20 0 6 22 29 30 26 9 -3 -19
-9 -25 -36 -30 -12 -2 -29 -14 -38 -26 -10 -14 -22 -19 -38 -16 -13 2 -21 0
-18 -4 3 -5 13 -9 22 -9 14 0 14 -2 -2 -13 -17 -12 -17 -15 -2 -30 15 -14 12
-16 -31 -22 -27 -4 -59 -11 -73 -16 -25 -9 -25 -9 3 -5 37 5 42 -8 18 -43 -12
-16 -21 -33 -21 -38 0 -14 -41 -29 -70 -27 -14 1 -33 -6 -44 -15 -10 -9 -20
-15 -22 -13 -10 6 -24 1 -24 -8 0 -5 3 -9 8 -9 21 4 32 -2 26 -13 -5 -10 -4
-10 6 -1 7 6 18 10 24 9 6 -2 8 -1 4 1 -21 12 -4 21 22 13 19 -5 28 -5 25 1
-4 5 -2 9 3 9 9 0 26 -29 24 -41 0 -3 6 -6 14 -6 12 0 12 3 -1 17 -21 23 -19
25 15 28 19 1 30 -3 30 -10 1 -7 8 1 17 17 8 17 22 38 31 47 8 10 11 18 6 18
-5 0 6 9 24 20 24 15 32 26 27 38 -3 9 -3 13 1 10 4 -4 16 -3 27 3 14 8 18 8
13 0 -7 -10 -4 -10 42 5 16 5 15 7 -3 21 -14 11 -16 17 -7 20 6 3 9 10 6 15
-4 6 -2 8 3 5 6 -4 18 2 28 13 14 15 21 17 32 9 9 -9 13 -9 13 0 0 6 -5 11
-11 11 -5 0 -7 6 -3 13 6 9 4 9 -8 -1 -13 -10 -18 -10 -24 -1 -4 8 -3 9 4 5 7
-4 13 -2 13 3 3 26 4 30 11 37 4 4 12 -5 17 -20 14 -34 22 -33 15 2 -7 34 21
66 37 41 5 -8 9 -9 9 -3 0 15 28 22 125 29 44 3 105 8 135 12 77 8 125 12 200
15 69 3 74 0 107 -59 13 -23 2 -33 -38 -33 -22 0 -23 -1 -7 -37 16 -37 26 -43
68 -43 l35 -1 -27 -24 c-17 -15 -26 -30 -22 -39 4 -9 0 -18 -9 -22 -9 -3 -13
-12 -10 -20 3 -8 -1 -14 -9 -14 -24 0 -51 -36 -43 -59 4 -12 2 -21 -4 -21 -6
0 -11 -11 -11 -25 0 -16 -6 -25 -15 -25 -9 0 -28 -12 -43 -28 -15 -15 -35 -26
-45 -24 -14 3 -17 -2 -15 -20 2 -13 7 -29 11 -36 10 -15 -1 -54 -13 -47 -5 3
-11 1 -15 -5 -4 -7 211 -10 659 -10 l666 0 0 2300 0 2300 -2300 0 -2300 0 0
-2295z m2800 2255 c6 -11 9 -20 8 -20 -2 0 -11 9 -21 20 -9 11 -13 20 -7 20 5
0 14 -9 20 -20z m-43 -25 c0 -8 -4 -12 -9 -9 -4 3 -8 9 -8 15 0 5 4 9 8 9 5 0
9 -7 9 -15z m378 -5 c3 -6 -1 -7 -9 -4 -18 7 -21 14 -7 14 6 0 13 -4 16 -10z
m80 -28 c-3 -3 -11 0 -18 7 -9 10 -8 11 6 5 10 -3 15 -9 12 -12z m-25 -8 c0
-8 -19 -13 -24 -6 -3 5 1 9 9 9 8 0 15 -2 15 -3z m60 -51 c0 -7 -7 -13 -16
-13 -14 0 -15 2 -3 17 10 11 10 14 2 9 -14 -8 -18 6 -6 17 8 8 23 -12 23 -30z
m-310 -2 c0 -6 -5 -13 -10 -16 -8 -5 -7 -12 1 -23 12 -16 11 -16 -5 0 -11 9
-16 23 -13 32 7 17 27 22 27 7z m-1087 -13 c-2 -5 -20 -8 -39 -8 -19 0 -33 4
-30 9 3 4 21 8 40 7 19 0 32 -4 29 -8z m-313 -58 c-11 -11 -18 -25 -15 -30 4
-6 1 -26 -6 -44 -10 -28 -10 -38 0 -50 11 -13 11 -16 -3 -16 -9 0 -16 6 -16
13 0 6 -10 0 -21 -16 -11 -15 -25 -25 -30 -22 -5 4 -6 -1 -3 -10 4 -10 2 -15
-7 -13 -9 2 -14 -7 -14 -27 0 -16 -3 -35 -8 -42 -5 -7 -1 -9 12 -6 24 6 36 33
16 33 -8 0 -12 6 -9 14 7 18 54 18 61 0 3 -8 9 -11 14 -8 21 12 6 -8 -36 -50
-24 -25 -40 -48 -35 -51 6 -4 4 -18 -5 -35 -13 -26 -18 -50 -29 -157 -1 -13
-6 -26 -9 -30 -4 -3 -7 -18 -7 -33 0 -14 -4 -30 -9 -36 -10 -11 -33 -80 -37
-109 -1 -11 -7 -38 -13 -60 -17 -65 -15 -87 9 -80 24 7 25 -2 5 -29 -17 -23
-5 -36 33 -36 26 0 27 -3 6 -35 -9 -14 -13 -25 -9 -25 4 0 3 -6 -2 -12 -6 -7
-14 -26 -18 -43 l-7 -30 -10 25 c-9 24 -10 24 -23 7 -19 -26 -23 -12 -21 82 2
71 0 84 -15 88 -14 4 -15 9 -6 34 9 22 8 32 -2 41 -11 11 -14 10 -18 -1 -4
-10 -7 -11 -13 -1 -16 26 -27 -2 -34 -82 -3 -46 -8 -95 -11 -110 -3 -15 -1
-30 5 -33 7 -4 8 -52 4 -136 -4 -84 -2 -129 4 -129 6 0 13 8 16 18 2 9 2 0 -1
-20 -3 -21 -1 -38 4 -38 5 0 10 -7 10 -15 0 -23 -14 -18 -21 8 -7 21 -7 21
-15 2 -5 -11 -12 -57 -16 -103 -6 -71 -10 -85 -30 -98 -58 -38 -127 -6 -140
64 -11 62 -6 168 10 214 9 23 17 48 18 54 2 7 8 18 13 25 6 8 16 29 24 47 7
18 26 44 42 57 29 24 30 30 33 113 1 48 0 81 -2 74 -11 -29 -19 1 -13 43 6 39
4 48 -13 60 -20 14 -35 91 -16 79 5 -3 9 3 9 13 0 11 7 28 15 39 8 10 15 27
15 37 0 9 5 17 11 17 8 0 8 4 1 13 -8 9 -6 16 8 25 11 6 27 26 36 44 9 18 23
38 31 46 8 8 16 27 19 42 3 15 23 50 44 78 22 28 44 68 49 89 10 35 73 113 91
113 5 0 14 16 20 35 6 19 15 35 20 35 5 0 14 17 21 38 17 52 53 102 57 80 2
-9 -6 -26 -18 -38z m90 -15 c0 -8 -7 -15 -15 -15 -13 0 -14 3 -3 15 16 18 18
18 18 0z m130 5 c0 -5 -5 -10 -11 -10 -5 0 -7 5 -4 10 3 6 8 10 11 10 2 0 4
-4 4 -10z m100 -100 c0 -5 -5 -9 -11 -7 -6 1 -16 -7 -22 -18 -31 -52 -49 -75
-58 -70 -15 10 -10 35 6 35 8 0 15 5 15 12 0 16 41 58 57 58 7 0 13 -4 13 -10z
m40 -34 c0 -11 -43 -76 -47 -72 -3 2 3 16 12 30 10 14 14 26 11 26 -4 0 -4 5
-1 10 6 10 25 14 25 6z m100 -96 c0 -5 -5 -10 -11 -10 -5 0 -7 5 -4 10 3 6 8
10 11 10 2 0 4 -4 4 -10z m-170 -4 c0 -3 -4 -8 -10 -11 -5 -3 -10 -1 -10 4 0
6 5 11 10 11 6 0 10 -2 10 -4z m446 -19 c1 -7 -6 -13 -16 -13 -9 0 -17 6 -17
12 0 7 7 10 15 6 11 -4 13 -1 7 9 -5 8 -4 11 0 6 5 -4 10 -13 11 -20z m-356 9
c0 -2 -8 -10 -17 -17 -16 -13 -17 -12 -4 4 13 16 21 21 21 13z m213 -21 c-3
-9 -8 -14 -10 -11 -3 3 -2 9 2 15 9 16 15 13 8 -4z m204 8 c-4 -3 -1 -16 7
-29 15 -21 12 -34 -7 -34 -5 0 -7 7 -4 15 4 8 2 17 -4 20 -5 4 -9 3 -8 -2 4
-21 -2 -34 -12 -27 -8 4 -7 9 2 15 8 5 10 9 6 9 -9 0 11 40 20 40 3 0 3 -3 0
-7z m36 -20 c-3 -7 -6 -13 -8 -13 -2 0 -5 6 -8 13 -3 8 1 14 8 14 7 0 11 -6 8
-14z m42 -2 c7 -12 -12 -24 -25 -16 -11 7 -4 25 10 25 5 0 11 -4 15 -9z m-128
-16 c0 -8 -4 -12 -9 -9 -4 3 -8 0 -8 -7 0 -7 -3 -9 -6 -6 -4 4 -1 13 6 22 15
19 17 19 17 0z m-77 -45 c0 -5 -5 -10 -11 -10 -5 0 -7 5 -4 10 3 6 8 10 11 10
2 0 4 -4 4 -10z m-213 -22 c-3 -8 -6 -5 -6 6 -1 11 2 17 5 13 3 -3 4 -12 1
-19z m50 5 c0 -10 -4 -10 -16 -1 -9 7 -18 13 -20 15 -2 1 5 1 16 0 11 0 20 -7
20 -14z m1419 -18 c4 -14 4 -29 0 -32 -3 -3 0 -13 7 -21 10 -13 9 -14 -7 -5
-12 7 -20 23 -22 47 -2 41 12 49 22 11z m-1601 -14 c3 -5 2 -12 -3 -15 -5 -3
-9 1 -9 9 0 17 3 19 12 6z m280 0 c3 -5 2 -12 -3 -15 -5 -3 -9 1 -9 9 0 17 3
19 12 6z m-25 -45 c0 -2 -7 -7 -16 -10 -8 -3 -12 -2 -9 4 6 10 25 14 25 6z
m40 0 c0 -2 -8 -10 -17 -17 -16 -13 -17 -12 -4 4 13 16 21 21 21 13z m-90 -12
c0 -8 -19 -13 -24 -6 -3 5 1 9 9 9 8 0 15 -2 15 -3z m-194 -31 c0 -10 5 -17
12 -15 9 1 8 -5 -4 -23 -19 -29 -40 -34 -25 -6 8 14 7 22 -5 32 -12 10 -12 14
-2 20 20 13 26 11 24 -8z m-31 -40 c-27 -19 -37 -16 -18 6 9 11 21 17 26 14 6
-3 2 -12 -8 -20z m245 13 c0 -3 -4 -8 -10 -11 -5 -3 -10 -1 -10 4 0 6 5 11 10
11 6 0 10 -2 10 -4z m93 -16 c3 -11 1 -20 -4 -20 -5 0 -9 7 -9 15 0 8 -4 15
-10 15 -9 0 -14 -15 -11 -33 1 -5 -3 -6 -9 -2 -14 8 6 45 24 45 8 0 16 -9 19
-20z m-63 6 c0 -2 -7 -7 -16 -10 -8 -3 -12 -2 -9 4 6 10 25 14 25 6z m-140
-31 c-7 -9 -15 -13 -17 -11 -7 7 7 26 19 26 6 0 6 -6 -2 -15z m56 -39 c-3 -14
-1 -28 4 -31 15 -9 2 -25 -15 -18 -18 6 -19 27 -5 54 15 27 23 24 16 -5z m55
-3 c11 -15 11 -16 0 -6 -7 6 -21 9 -30 6 -14 -4 -14 -3 -1 6 8 6 16 11 16 11
1 0 8 -8 15 -17z m1345 -2 c0 -11 -4 -17 -8 -15 -4 3 -8 12 -8 20 0 8 4 14 8
14 4 0 8 -9 8 -19z m-96 -44 c0 -5 -4 -5 -10 -2 -5 3 -10 14 -10 23 0 15 2 15
10 2 5 -8 10 -19 10 -23z m9 -29 c-2 -7 3 -31 9 -53 7 -22 12 -47 12 -55 -1
-23 -20 14 -25 47 -2 16 -6 38 -9 51 -3 12 0 22 5 22 5 0 9 -6 8 -12z m-1403
-73 c1 -8 -2 -13 -7 -9 -5 3 -9 12 -9 21 0 19 13 9 16 -12z m350 -32 c-5 -26
-15 -43 -17 -27 0 5 -2 18 -4 28 -5 24 3 38 16 31 5 -4 7 -18 5 -32z m-62 -28
c-4 -8 -10 -12 -15 -9 -11 6 -2 24 11 24 5 0 7 -7 4 -15z m-844 -35 c0 -21
-15 -27 -25 -10 -7 12 2 30 16 30 5 0 9 -9 9 -20z m345 10 c-3 -5 -11 -10 -16
-10 -6 0 -7 5 -4 10 3 6 11 10 16 10 6 0 7 -4 4 -10z m45 6 c0 -2 -8 -10 -17
-17 -16 -13 -17 -12 -4 4 13 16 21 21 21 13z m26 -27 c1 -5 2 -13 3 -19 0 -5
9 -7 19 -3 14 5 14 3 -3 -11 -17 -15 -17 -17 -2 -12 9 3 17 1 17 -4 0 -6 -6
-10 -14 -10 -8 0 -17 -6 -20 -12 -3 -7 -3 -1 -1 15 2 18 0 25 -7 21 -7 -4 -8
-2 -4 4 5 8 2 10 -8 6 -9 -3 -16 -1 -16 6 0 6 5 8 10 5 10 -6 15 9 10 30 -1 6
2 6 7 2 4 -5 9 -13 9 -18z m-92 -14 c-4 -8 -11 -12 -16 -9 -6 4 -5 10 3 15 19
12 19 11 13 -6z m58 -17 c13 -13 23 -27 24 -33 2 -24 5 -25 22 -16 14 8 19 6
19 -5 0 -8 -6 -13 -13 -10 -8 3 -16 1 -19 -4 -4 -7 -13 -6 -25 0 -11 6 -21 6
-24 1 -5 -8 29 -24 46 -22 7 1 2 -38 -5 -46 -2 -2 -10 4 -18 14 -13 15 -12 16
6 9 14 -5 17 -4 9 4 -14 14 -56 22 -49 9 4 -5 12 -6 18 -3 8 5 8 3 0 -7 -16
-16 -17 -30 -2 -26 6 1 13 -5 14 -14 2 -9 -3 -16 -11 -16 -7 0 -11 4 -8 8 2 4
-1 11 -7 14 -5 4 -8 13 -5 21 3 9 -2 14 -14 14 -16 0 -18 4 -10 24 15 40 9 64
-15 57 -17 -4 -18 -6 -2 -9 9 -2 17 -8 17 -13 0 -6 -5 -7 -12 -3 -7 4 -8 3 -4
-4 4 -7 1 -12 -6 -13 -10 0 -10 -2 0 -6 6 -2 12 -9 12 -14 0 -6 -4 -8 -8 -5
-5 3 -9 -1 -9 -9 0 -8 3 -12 7 -10 3 2 12 -1 20 -7 13 -8 12 -9 -1 -5 -12 4
-16 -2 -17 -25 -1 -23 2 -27 12 -19 9 8 13 7 13 -4 0 -8 -4 -12 -9 -9 -14 9
-9 -13 7 -26 11 -9 12 -16 5 -26 -12 -14 5 -15 28 0 8 5 11 3 10 -5 -2 -10 12
-14 47 -15 68 -1 73 -3 51 -15 -13 -8 -15 -13 -6 -19 8 -5 7 -9 -4 -13 -9 -4
-15 -3 -15 1 3 19 -3 22 -21 12 -11 -6 -20 -7 -19 -3 1 4 1 15 0 23 -1 13 -2
13 -11 0 -9 -13 -11 -13 -20 0 -9 13 -10 13 -10 0 0 -9 -3 -11 -8 -5 -14 19
-40 16 -48 -7 -9 -29 -34 -55 -34 -36 0 11 -2 11 -9 0 -6 -11 -10 -10 -15 4
-4 10 -3 20 1 23 10 8 10 32 -1 50 -6 9 -5 12 0 8 6 -3 10 9 10 29 0 19 -5 34
-10 34 -7 0 -8 3 -1 8 15 11 17 33 4 48 -9 12 -9 18 0 27 10 9 12 8 9 -5 -1
-9 2 -17 7 -17 6 -1 10 21 9 47 0 47 1 48 30 49 17 0 34 -5 38 -11 5 -7 11 -6
20 3 11 11 11 13 -1 6 -9 -5 -12 -4 -7 3 4 7 1 12 -8 12 -9 0 -16 5 -16 10 0
17 19 11 42 -12z m98 2 c-12 -22 -21 -26 -17 -7 2 10 17 26 25 27 1 0 -2 -9
-8 -20z m290 -44 c0 -2 -8 -10 -17 -17 -16 -13 -17 -12 -4 4 13 16 21 21 21
13z m-535 -86 c3 -5 1 -10 -4 -10 -6 0 -11 5 -11 10 0 6 2 10 4 10 3 0 8 -4
11 -10z m370 -77 c-26 -18 -32 -7 -9 18 12 14 20 17 23 8 2 -7 -4 -18 -14 -26z
m-43 4 c-14 -17 1 -42 19 -32 8 5 11 5 7 0 -4 -4 -2 -17 4 -29 10 -18 9 -19
-4 -9 -8 7 -19 9 -23 5 -5 -4 -5 -2 -2 4 7 12 -16 38 -25 29 -3 -3 -3 6 -1 20
3 14 12 25 20 25 12 0 13 -3 5 -13z m113 1 c5 4 5 1 1 -6 -6 -10 -11 -10 -22
-1 -11 9 -16 6 -23 -14 -13 -33 -31 -44 -26 -16 5 27 36 50 51 38 6 -5 15 -5
19 -1z m-161 -23 c-15 -22 -11 -36 9 -31 7 2 9 1 4 -1 -4 -3 -5 -9 -1 -14 3
-5 0 -9 -6 -9 -6 0 -9 -4 -5 -9 3 -5 1 -12 -4 -16 -6 -3 -8 5 -5 19 2 14 0 28
-6 31 -6 4 -8 11 -5 16 4 5 -1 9 -9 9 -8 0 -17 4 -20 9 -3 4 6 6 21 3 15 -3
24 -1 20 5 -3 5 0 10 8 10 11 0 11 -4 -1 -22z m201 15 c3 -5 1 -10 -4 -10 -6
0 -11 5 -11 10 0 6 2 10 4 10 3 0 8 -4 11 -10z m-494 -37 c13 -16 12 -17 -3
-4 -17 13 -22 21 -14 21 2 0 10 -8 17 -17z m436 2 c0 -8 -4 -12 -9 -9 -5 3 -6
10 -3 15 9 13 12 11 12 -6z m168 5 c3 -6 -1 -7 -9 -4 -18 7 -21 14 -7 14 6 0
13 -4 16 -10z m-982 -25 c-3 -9 -8 -14 -10 -11 -3 3 -2 9 2 15 9 16 15 13 8
-4z m1108 -8 c-10 -9 -11 -8 -5 6 3 10 9 15 12 12 3 -3 0 -11 -7 -18z m-564
-12 c12 1 21 -3 20 -9 -1 -5 3 -10 10 -11 6 0 15 -4 20 -9 5 -5 3 -6 -4 -2 -7
4 -13 2 -13 -3 0 -6 5 -11 12 -11 6 0 3 -7 -8 -15 -12 -10 -14 -14 -4 -12 8 2
12 2 7 0 -4 -3 -5 -9 -1 -14 3 -5 0 -9 -6 -9 -6 0 -8 -5 -5 -11 4 -6 14 -8 22
-5 8 4 11 1 8 -5 -4 -6 -12 -8 -19 -6 -15 6 -50 -19 -43 -30 3 -4 -2 -17 -10
-28 -14 -18 -15 -18 -9 -1 5 15 2 18 -18 14 -15 -3 -24 -1 -23 6 3 17 20 26
32 16 7 -6 16 -1 24 13 11 18 11 20 0 10 -7 -7 -17 -13 -22 -13 -12 0 -4 21 8
22 37 1 52 33 32 66 -5 6 -5 16 -2 22 3 6 -1 7 -9 4 -9 -3 -13 -10 -10 -15 3
-6 0 -18 -8 -27 -12 -15 -11 -16 5 -3 9 8 20 11 24 7 3 -3 1 -6 -6 -6 -7 0
-10 -4 -7 -9 3 -5 -1 -11 -9 -15 -8 -3 -16 -1 -16 4 -1 6 -2 16 -3 23 -1 6 1
19 5 28 11 22 1 31 -21 19 -15 -8 -17 -6 -13 10 4 14 10 17 22 11 9 -4 26 -7
38 -6z m168 -6 c-4 -5 -12 -9 -18 -8 -9 0 -8 2 1 6 6 2 9 10 6 15 -4 7 -2 8 5
4 6 -4 9 -12 6 -17z m-325 7 c0 -2 -8 -10 -17 -17 -16 -13 -17 -12 -4 4 13 16
21 21 21 13z m677 -11 c0 -8 -4 -12 -9 -9 -5 3 -6 10 -3 15 9 13 12 11 12 -6z
m89 3 c4 -7 3 -8 -4 -4 -7 4 -12 2 -12 -5 0 -7 -3 -10 -6 -6 -6 5 3 27 11 27
2 0 7 -5 11 -12z m61 -7 c20 17 16 1 -6 -23 -11 -11 -17 -26 -15 -33 3 -7 0
-16 -7 -21 -9 -5 -11 -2 -6 9 6 15 -17 33 -38 28 -5 -1 -2 5 7 15 14 14 20 15
32 4 18 -14 22 -1 6 18 -7 9 -7 9 2 2 7 -6 16 -6 25 1z m-811 -27 c-3 -8 1
-14 8 -14 7 0 19 -7 26 -15 12 -14 15 -13 30 11 11 16 20 22 24 15 4 -6 2 -11
-5 -11 -8 0 -5 -9 7 -22 10 -13 12 -18 5 -11 -15 13 -44 6 -35 -8 3 -5 10 -6
16 -3 7 4 8 2 4 -4 -4 -7 -2 -12 3 -12 6 0 11 -5 11 -11 0 -5 -4 -8 -9 -4 -6
3 -14 -2 -18 -10 -10 -17 -63 -31 -63 -16 0 5 8 8 18 7 19 -3 46 29 37 44 -8
14 -26 13 -22 -1 1 -6 -4 -14 -10 -16 -15 -6 -17 13 -3 22 6 3 10 11 10 16 0
6 -5 7 -12 3 -6 -4 -8 -3 -5 3 4 6 -5 14 -21 18 -15 4 -22 9 -15 12 7 2 9 11
6 20 -4 11 -3 14 6 9 7 -5 10 -14 7 -22z m-55 -17 c-10 -9 -11 -8 -5 6 3 10 9
15 12 12 3 -3 0 -11 -7 -18z m509 -17 c0 -5 -4 -10 -10 -10 -5 0 -10 5 -10 10
0 6 5 10 10 10 6 0 10 -4 10 -10z m-44 -67 c-2 -10 -12 -18 -22 -18 -11 -1
-18 -7 -15 -15 12 -52 5 -66 -24 -49 -11 7 -31 5 -57 -6 -12 -5 -18 -2 -18 6
0 10 -3 10 -8 3 -5 -8 -14 -9 -32 -1 -47 19 -57 18 -55 -6 1 -12 8 -22 16 -22
31 -1 41 -16 25 -39 -16 -25 -6 -53 14 -41 10 6 12 1 8 -19 -3 -14 -1 -29 4
-32 4 -3 6 -9 3 -14 -3 -5 4 -7 16 -5 17 3 19 2 9 -10 -10 -12 -7 -13 15 -9
19 3 26 1 23 -8 -5 -15 -37 -17 -56 -4 -8 6 -12 6 -11 0 1 -5 1 -15 0 -23 -1
-11 -4 -11 -18 0 -17 13 -17 13 0 -7 9 -11 14 -24 10 -28 -5 -4 -1 -6 7 -4 8
2 14 -3 13 -9 -4 -18 2 -16 18 4 8 10 9 14 2 10 -19 -12 -27 14 -9 31 16 16
18 16 31 -2 10 -13 11 -25 5 -42 -5 -13 -6 -24 -1 -24 14 0 22 31 15 53 -4 13
-3 17 6 12 7 -4 9 -21 7 -41 -4 -25 -1 -34 9 -34 8 0 15 5 15 10 2 11 5 25 9
38 1 4 2 11 1 15 -1 5 3 6 8 3 10 -7 9 -25 -3 -44 -4 -7 -3 -19 4 -27 9 -11 7
-13 -7 -11 -23 4 -47 -25 -30 -36 18 -11 29 -9 21 4 -5 7 -3 8 5 3 10 -6 9
-11 -3 -23 -14 -14 -17 -14 -38 4 -13 10 -17 12 -11 3 10 -12 9 -20 -3 -37 -8
-12 -11 -22 -5 -22 5 0 13 10 17 22 6 20 7 20 17 3 7 -14 7 -20 -1 -23 -7 -2
-10 -8 -7 -13 4 -5 -2 -6 -11 -2 -13 5 -15 3 -9 -7 6 -9 4 -11 -5 -5 -10 6
-12 4 -7 -9 4 -10 1 -19 -8 -22 -8 -4 -13 -10 -10 -14 3 -5 1 -11 -5 -15 -6
-4 -7 -11 -4 -17 4 -6 2 -8 -4 -4 -5 3 -12 1 -14 -5 -2 -7 -9 -5 -17 5 -12 14
-11 16 8 16 14 0 20 4 15 12 -5 7 -3 8 6 3 9 -5 11 -4 6 4 -5 8 -13 7 -28 -4
-16 -10 -25 -11 -34 -4 -10 8 -12 6 -9 -11 3 -14 0 -20 -8 -17 -7 3 -11 9 -10
15 2 6 -7 9 -19 7 -22 -5 -48 10 -48 27 0 6 7 5 15 -2 12 -10 16 -9 21 4 6 15
8 15 20 -1 13 -16 13 -16 8 -1 -5 15 -2 16 27 8 18 -5 28 -6 23 -1 -5 5 -18
11 -29 13 -13 2 -19 10 -17 23 2 19 2 19 -8 2 -6 -9 -16 -14 -22 -11 -6 4 -8
3 -5 -3 10 -15 -18 -24 -32 -10 -8 8 -11 6 -11 -10 0 -11 7 -26 15 -33 8 -7
12 -17 8 -23 -3 -5 -1 -7 5 -3 6 3 22 2 37 -4 19 -7 31 -7 40 0 8 7 15 7 19 2
11 -19 -49 -34 -71 -19 -19 13 -36 -2 -22 -19 8 -10 8 -14 0 -14 -6 0 -11 6
-11 13 0 8 -4 7 -10 -3 -6 -9 -10 -10 -10 -3 0 6 4 14 10 18 16 10 -1 35 -24
34 -20 0 -20 -1 -2 -8 14 -5 16 -10 8 -15 -7 -4 -18 -4 -24 0 -7 4 -5 -1 4
-12 16 -19 16 -20 -2 -20 -11 0 -20 5 -20 11 -1 14 -20 -22 -25 -45 -2 -12 0
-18 5 -15 10 6 30 -26 29 -47 0 -7 -4 -3 -10 10 -5 13 -13 21 -18 17 -6 -3
-14 3 -20 12 -5 10 -12 15 -16 11 -3 -3 4 -16 17 -28 13 -13 17 -19 9 -15 -9
5 -12 3 -9 -6 3 -8 10 -13 16 -12 5 1 9 -5 7 -15 -2 -9 -4 -26 -4 -36 -1 -19
-1 -19 -23 0 l-23 19 20 -23 c18 -22 20 -22 32 -6 19 26 16 8 -3 -22 -14 -20
-19 -22 -33 -12 -9 7 -1 -4 18 -25 19 -20 38 -34 42 -31 8 5 22 -13 25 -34 1
-6 -2 -10 -7 -6 -5 3 -7 10 -4 15 3 5 -1 6 -10 3 -14 -6 -14 -8 1 -25 9 -10
25 -19 37 -21 25 -4 35 -28 11 -28 -19 0 -10 -15 9 -15 7 0 11 -8 9 -18 -2
-11 2 -15 11 -11 9 3 14 -1 14 -13 0 -37 3 -44 16 -37 6 4 3 -3 -8 -16 -11
-13 -15 -20 -9 -17 7 4 17 0 24 -8 7 -8 16 -13 20 -10 9 6 33 -22 36 -41 2
-15 52 -59 66 -59 11 0 32 -24 34 -40 3 -19 -10 -19 -30 0 -8 8 -19 15 -24 15
-5 0 -15 7 -22 15 -7 8 -17 12 -23 8 -5 -3 -7 -1 -4 4 4 6 -1 17 -10 24 -12
10 -15 10 -9 1 5 -9 1 -11 -16 -8 -13 3 -25 5 -28 6 -3 2 -9 1 -15 0 -5 -1 -7
2 -2 6 9 9 -22 46 -33 39 -5 -3 -7 3 -6 12 3 16 -2 25 -31 58 -7 7 -13 18 -13
24 0 5 -15 26 -34 45 -18 20 -31 38 -28 41 3 3 0 5 -7 5 -7 0 -10 4 -7 9 3 5
-1 14 -9 21 -8 7 -15 18 -15 24 0 6 -11 16 -23 22 -18 8 -24 8 -24 -2 0 -7 5
-10 10 -7 6 3 7 1 3 -5 -12 -20 -47 8 -35 29 6 12 5 20 -1 24 -6 4 -8 10 -6
14 3 4 -2 8 -10 8 -10 0 -11 -4 -4 -11 13 -13 13 -49 1 -41 -6 3 -8 -3 -6 -13
2 -12 -3 -18 -15 -18 -15 0 -16 3 -8 13 6 8 8 16 4 20 -3 3 -6 1 -6 -6 0 -7
-5 -9 -12 -5 -7 4 -10 4 -6 -1 4 -4 3 -14 -3 -22 -9 -9 -8 -17 0 -27 7 -8 8
-16 4 -18 -4 -3 -2 -3 5 -1 7 1 10 -2 7 -7 -3 -5 7 -23 23 -40 26 -26 31 -28
36 -14 7 19 -12 36 -29 26 -5 -3 -4 2 4 11 11 14 11 20 1 32 -7 8 -16 12 -21
9 -5 -3 -14 -2 -20 2 -8 4 -7 9 2 15 7 4 19 3 26 -3 9 -7 14 -6 19 6 6 15 8
15 24 1 9 -8 19 -12 23 -9 3 3 4 -2 3 -13 -2 -10 2 -24 8 -32 9 -12 8 -13 -6
-8 -22 8 -30 -4 -12 -20 8 -8 15 -9 19 -3 3 5 16 15 28 21 17 8 15 4 -8 -18
-16 -16 -32 -28 -35 -27 -3 2 -12 -1 -20 -7 -11 -6 -11 -9 -2 -9 10 0 10 -3 0
-13 -7 -8 -19 -14 -26 -14 -11 0 -11 3 2 13 11 7 13 15 7 18 -14 9 -53 -32
-45 -46 4 -7 3 -8 -4 -4 -7 4 -12 2 -12 -5 0 -8 -5 -8 -17 2 -10 7 -5 -1 11
-19 17 -18 26 -32 23 -32 -4 0 -3 -9 3 -19 7 -14 7 -22 0 -26 -6 -4 -7 -11 -4
-17 5 -7 2 -8 -5 -3 -9 5 -9 11 -3 17 12 12 5 38 -10 38 -6 0 -8 -6 -5 -14 3
-8 0 -20 -8 -26 -11 -9 -13 -7 -9 14 2 13 0 27 -6 31 -5 3 -7 0 -4 -8 3 -8 0
-18 -7 -23 -8 -4 -10 -3 -5 4 4 6 -2 19 -13 29 -11 9 -17 21 -14 26 4 6 1 7
-6 3 -9 -6 -8 -13 5 -28 10 -10 20 -31 22 -46 2 -15 10 -34 18 -44 9 -9 17
-23 18 -32 1 -9 13 -28 27 -42 13 -15 17 -23 9 -19 -8 5 0 -6 18 -24 18 -18
31 -38 30 -44 -3 -13 58 -77 66 -70 3 3 3 -7 0 -22 -4 -20 -1 -26 9 -22 7 3
14 0 15 -6 0 -7 4 -23 8 -37 7 -23 6 -24 -12 -10 -17 14 -18 13 -7 -1 7 -9 9
-20 5 -25 -4 -5 -3 -6 2 -1 5 4 17 0 27 -9 11 -10 19 -12 24 -5 3 6 12 11 18
11 8 0 8 -3 -2 -9 -9 -6 -10 -11 -3 -15 6 -4 8 -14 5 -22 -5 -13 -7 -13 -14
-2 -6 9 -8 6 -6 -10 l1 -22 24 25 c30 32 39 32 17 -1 -9 -14 -14 -28 -11 -32
3 -3 6 0 6 7 0 7 5 9 13 4 23 -14 39 -12 32 5 -5 14 -4 14 13 -1 10 -9 21 -15
24 -12 3 3 16 -5 30 -18 14 -13 52 -41 85 -63 87 -59 143 -106 143 -121 0 -7
6 -23 13 -34 10 -17 9 -23 -1 -26 -6 -3 -10 -9 -6 -14 3 -5 -1 -12 -10 -15 -8
-3 -13 -11 -10 -18 3 -7 -2 -13 -10 -13 -8 0 -13 5 -9 10 3 5 -6 1 -21 -8 -29
-19 -34 -27 -11 -19 8 4 15 1 15 -6 0 -6 4 -9 9 -5 5 3 13 1 16 -5 4 -6 1 -9
-7 -8 -7 2 -12 -2 -11 -7 1 -6 -7 -11 -18 -11 -19 0 -19 1 -3 13 10 7 13 13 7
13 -7 0 -21 -12 -32 -26 -12 -16 -21 -21 -21 -13 -1 22 -44 65 -72 72 -26 7
-59 -16 -44 -30 3 -3 6 -1 6 7 0 10 4 10 18 -1 16 -13 16 -13 2 5 -13 17 -13
19 0 14 8 -3 14 -12 14 -21 -1 -9 3 -14 9 -10 6 4 7 1 2 -6 -6 -10 -3 -11 14
-2 17 9 20 9 15 -3 -6 -15 -21 -16 -41 -3 -7 5 -17 6 -22 3 -13 -8 -30 17 -27
39 2 14 11 20 30 19 14 0 25 5 23 10 -2 6 -11 11 -20 11 -9 0 -22 6 -28 12
-10 10 -7 11 13 8 17 -3 25 0 25 10 0 22 -24 18 -49 -7 -15 -15 -20 -17 -15
-5 3 9 1 19 -4 23 -6 3 -8 16 -5 29 3 12 3 25 -1 29 -11 11 -12 36 -1 36 6 0
5 6 -2 15 -11 13 -10 14 4 9 16 -6 19 3 19 58 0 11 4 15 11 11 6 -4 17 -8 24
-9 8 -2 17 -5 20 -9 4 -3 -6 -4 -22 -1 -16 3 -25 2 -21 -2 6 -7 10 -8 35 -11
6 0 10 -9 8 -18 -2 -10 5 -19 17 -22 11 -3 22 -13 23 -21 12 -50 11 -61 -3
-66 -22 -9 -18 -27 4 -21 13 3 18 0 15 -7 -3 -7 5 -21 17 -32 13 -10 19 -13
14 -5 -6 11 -4 13 11 8 18 -7 18 -6 -1 8 -14 11 -16 18 -8 23 9 6 8 15 -4 40
-8 17 -20 32 -25 32 -5 0 -7 4 -3 10 3 5 -3 18 -14 29 -13 13 -16 21 -8 25 14
5 -25 42 -61 56 -12 5 -21 15 -20 22 4 20 -50 22 -79 2 -25 -15 -27 -15 -38 0
-11 14 -13 15 -18 1 -4 -8 -1 -14 6 -12 7 1 12 -5 12 -13 0 -8 -6 -14 -13 -12
-8 1 -11 -2 -7 -7 3 -6 -3 -19 -15 -31 -11 -11 -17 -20 -14 -20 4 0 2 -6 -4
-12 -13 -16 -27 -84 -24 -118 1 -14 4 -70 7 -125 6 -125 8 -135 28 -150 9 -7
17 -21 17 -32 0 -11 3 -23 8 -27 4 -4 7 -11 8 -14 1 -13 51 -111 63 -126 26
-31 7 -117 -22 -99 -6 4 -7 1 -2 -7 5 -8 3 -11 -6 -8 -8 3 -13 12 -11 20 1 8
-4 15 -11 15 -7 0 -13 -10 -12 -21 1 -16 9 -21 33 -22 17 -1 29 2 27 7 -3 4
-1 10 4 13 5 3 11 -1 15 -9 3 -8 -2 -18 -11 -23 -8 -5 -16 -19 -17 -31 -1 -27
-20 -32 -25 -6 -2 11 -19 35 -37 53 -35 34 -47 55 -17 31 15 -13 16 -11 10 13
-6 21 -3 30 14 38 16 9 18 14 9 25 -6 8 -19 11 -27 8 -9 -4 -14 -2 -10 3 3 6
2 16 -3 24 -5 8 -5 21 0 31 7 12 5 21 -6 30 -12 10 -15 10 -12 -1 2 -7 -4 -15
-12 -17 -10 -3 -11 -2 -4 4 6 4 10 18 9 30 -1 12 2 20 7 17 9 -6 11 37 2 60
-3 9 -12 16 -19 16 -10 0 -13 23 -11 100 3 92 0 105 -25 158 -15 31 -39 70
-53 85 -14 15 -26 31 -26 34 0 3 -8 12 -17 20 -10 8 -13 12 -7 9 6 -3 11 0 11
7 0 7 -8 13 -17 13 -20 0 -20 -24 1 -40 8 -6 20 -18 26 -27 10 -13 10 -16 -2
-16 -7 0 -13 5 -12 11 1 6 -5 11 -13 11 -8 0 -14 -6 -12 -13 1 -8 -2 -11 -9
-7 -8 5 -8 10 0 18 19 19 12 28 -11 16 -22 -12 -22 -11 -6 13 11 16 13 29 7
40 -6 11 -5 19 2 24 7 4 9 3 6 -3 -3 -5 0 -10 8 -10 11 0 12 4 4 14 -6 7 -16
10 -22 6 -6 -4 -8 0 -4 10 8 21 3 21 -16 2 -13 -12 -15 -11 -20 10 -3 20 -2
23 9 14 11 -9 14 -8 14 0 0 7 4 10 8 7 5 -3 9 1 9 8 0 8 -8 11 -20 8 -17 -4
-19 -1 -15 16 3 12 0 29 -8 39 -7 10 -14 13 -14 6 0 -9 -7 -10 -39 -4 -2 1 3
9 10 18 12 14 12 16 0 8 -11 -6 -13 -4 -8 8 3 10 2 17 -3 17 -6 0 -10 5 -10
11 0 5 6 7 13 3 8 -5 7 -2 -2 9 -8 10 -11 20 -8 24 4 3 3 11 -2 17 -16 20 -42
128 -48 197 -3 38 -9 69 -13 69 -11 0 -5 109 8 148 14 43 8 40 -23 -8 -26 -41
-34 -76 -13 -64 7 4 8 3 4 -5 -4 -6 -12 -9 -18 -5 -5 3 -9 -2 -7 -12 1 -11 -2
-44 -7 -74 -4 -30 -7 -59 -6 -64 2 -4 -2 -14 -8 -20 -5 -7 -7 -16 -3 -20 10
-10 11 -46 1 -40 -4 3 -8 -2 -8 -10 0 -19 -11 -20 -29 -3 -11 10 -13 10 -7 0
4 -7 2 -13 -3 -13 -6 0 -11 4 -11 10 0 16 -52 58 -66 53 -8 -3 -11 -10 -7 -16
3 -5 1 -7 -5 -4 -14 9 -43 -3 -36 -14 3 -5 -3 -9 -12 -9 -10 0 -14 -3 -11 -7
4 -3 -2 -16 -12 -27 -19 -20 -21 -25 -21 -45 0 -5 -10 -11 -21 -14 -14 -4 -20
-11 -16 -21 4 -10 1 -13 -9 -9 -7 3 -14 17 -14 32 0 58 19 90 96 162 43 41 87
85 98 98 12 14 28 32 36 40 8 9 36 43 62 76 67 86 94 115 107 115 6 0 11 6 11
14 0 7 13 40 30 72 30 60 45 119 40 164 -1 14 -2 34 -1 45 4 86 0 153 -12 173
-5 7 -2 15 8 18 14 6 14 9 -2 28 -16 19 -16 19 0 7 16 -12 17 -10 17 30 0 39
-5 48 -55 96 -30 29 -55 56 -55 60 0 3 8 -1 18 -10 10 -10 22 -15 25 -12 4 3
5 2 3 -1 -7 -9 36 -54 52 -54 9 0 12 -3 9 -6 -8 -8 36 -44 54 -44 7 0 3 10
-10 24 -14 15 -19 26 -12 31 6 3 11 11 11 16 0 6 -4 8 -9 4 -5 -3 -12 -1 -15
4 -7 11 13 9 33 -3 12 -8 11 -11 -3 -21 -14 -11 -14 -14 -2 -25 9 -6 20 -9 27
-5 8 6 7 10 -2 16 -10 6 -11 9 -1 9 18 0 54 -39 46 -52 -4 -7 -3 -8 4 -4 7 4
12 2 12 -5 0 -8 6 -6 18 4 10 10 22 14 25 10 13 -12 7 13 -5 26 -7 8 -1 6 14
-4 34 -21 29 -20 56 -6 12 7 20 16 17 22 -4 5 -1 8 7 7 7 -2 12 3 10 10 -1 6
3 12 9 12 5 0 8 4 4 9 -3 5 -1 12 5 16 5 3 10 -1 10 -10 0 -11 5 -15 15 -11 8
3 14 0 12 -6 -1 -7 3 -12 10 -13 20 0 27 -15 7 -15 -11 0 -25 5 -32 12 -9 9
-13 7 -18 -5 -3 -9 -10 -15 -14 -12 -5 3 -11 1 -14 -4 -4 -5 -2 -12 3 -15 5
-4 12 -2 16 4 9 15 25 12 19 -4 -3 -8 -1 -17 5 -21 7 -4 8 1 4 12 -3 10 -3 15
2 11 4 -4 14 -3 22 3 9 9 17 8 27 0 10 -8 21 -8 40 -1 35 13 39 13 30 -2 -6
-10 -5 -10 8 -1 8 7 17 10 21 7 3 -3 4 1 3 10 -1 8 -6 19 -10 23 -4 4 -7 4 -6
-2 5 -22 -1 -25 -22 -14 -21 11 -21 12 -3 25 18 14 18 14 -1 15 -12 0 -14 3
-5 6 11 5 11 7 0 14 -11 6 -11 11 -1 21 16 16 15 30 -2 26 -8 -2 -15 0 -15 5
-2 22 0 28 8 22 9 -5 9 6 -1 44 -2 8 6 14 19 16 13 1 19 -3 16 -11 -2 -6 0
-15 6 -19 7 -4 10 2 7 17 -2 13 -9 22 -15 21 -6 -2 -11 3 -11 11 0 8 -5 18
-10 21 -6 4 -10 3 -9 -2 3 -20 -2 -34 -11 -28 -6 4 -9 14 -8 22 2 9 -4 18 -12
21 -8 3 -12 1 -8 -3 4 -4 -1 -20 -11 -34 -30 -44 -33 -52 -19 -49 18 4 38 31
31 42 -3 5 0 7 7 4 20 -6 21 -40 2 -54 -9 -7 -21 -10 -26 -7 -5 4 -6 1 -1 -6
5 -9 10 -10 18 -2 18 18 29 13 18 -8 -8 -14 -7 -22 3 -30 19 -16 13 -57 -9
-53 -17 3 -17 2 -1 -13 9 -9 13 -21 10 -27 -4 -6 -2 -8 4 -4 6 3 13 2 17 -4 3
-5 2 -10 -4 -10 -5 0 -16 -3 -25 -6 -11 -4 -14 0 -11 16 2 13 2 20 -2 16 -11
-11 -33 16 -33 40 0 13 -4 24 -10 24 -5 0 -6 -8 -3 -17 6 -15 5 -16 -9 -3 -9
8 -14 18 -11 23 2 4 -3 7 -11 7 -9 0 -16 4 -16 9 0 6 9 8 20 6 11 -2 20 0 20
6 0 5 -7 9 -15 9 -8 0 -15 7 -15 15 0 8 -4 15 -9 15 -4 0 -6 12 -3 28 4 23 3
25 -10 15 -12 -10 -15 -10 -15 2 0 8 4 12 9 9 4 -3 8 0 8 7 0 7 7 5 18 -7 10
-10 17 -30 16 -44 -2 -18 -2 -19 2 -5 3 11 10 24 14 29 5 5 6 15 3 23 -5 12
-7 12 -14 1 -5 -8 -9 -9 -9 -2 0 6 7 17 15 24 13 10 15 9 15 -9 0 -11 5 -21
11 -21 5 0 7 5 4 10 -3 6 -1 10 5 10 6 0 8 5 3 13 -12 19 -14 45 -3 52 13 8 1
35 -16 35 -8 0 -14 4 -14 10 0 5 -8 7 -17 4 -11 -4 -14 -2 -8 3 19 15 16 39
-5 39 -22 0 -27 -12 -7 -19 9 -4 9 -6 0 -6 -7 -1 -17 7 -22 18 -9 16 -6 18 19
17 31 -1 67 -26 40 -26 -11 -1 -10 -4 4 -15 24 -18 41 -9 24 13 -11 13 -11 14
1 7 11 -6 13 -4 9 7 -4 8 0 15 7 15 10 0 11 -5 5 -17 -6 -11 -5 -21 3 -29 9
-10 9 -12 -3 -9 -9 2 -14 -3 -11 -12 2 -8 4 -20 4 -26 1 -17 69 -8 83 11 14
19 9 39 -7 29 -5 -3 -6 -10 -3 -16 4 -6 -1 -6 -14 1 -17 9 -23 8 -31 -6 -5
-10 -13 -14 -18 -10 -4 5 0 13 9 18 10 5 15 18 13 29 -2 12 0 18 6 14 6 -3 8
5 5 20 -4 23 -2 25 14 16 27 -14 48 13 29 38 -12 15 -12 16 2 5 9 -7 20 -9 24
-5 5 4 4 1 0 -7 -6 -11 -4 -13 8 -8 12 4 14 2 10 -10 -5 -12 -3 -14 7 -8 8 5
11 4 6 -3 -12 -20 10 -21 38 -3 19 13 24 21 16 26 -7 4 -16 1 -21 -6 -7 -11
-9 -11 -9 -1 0 8 -5 10 -12 6 -8 -4 -10 -3 -5 2 5 5 12 8 15 7 4 0 15 3 25 8
13 7 17 6 17 -6 0 -25 1 -29 12 -42 6 -7 14 -10 20 -7 5 4 5 10 -1 18 -8 9 -9
28 -2 54 1 1 11 -3 24 -9 20 -11 21 -11 8 4 -11 15 -11 17 2 17 9 0 14 -7 13
-17z m-206 -35 c0 -5 -4 -8 -10 -8 -5 0 -9 3 -9 8 3 18 -2 24 -14 13 -10 -8
-14 -7 -14 4 0 8 4 12 9 9 4 -3 8 0 8 7 0 13 29 -20 30 -33z m245 2 c-3 -5 0
-12 6 -16 7 -4 9 -3 5 4 -3 6 -1 14 5 17 7 5 9 1 7 -11 -2 -11 -10 -17 -19
-15 -8 2 -26 4 -41 4 -16 0 -28 3 -28 8 0 10 14 12 44 9 12 -1 16 2 11 11 -5
8 -4 10 4 5 6 -4 9 -11 6 -16z m-345 -31 c0 -6 -4 -7 -10 -4 -5 3 -10 11 -10
16 0 6 5 7 10 4 6 -3 10 -11 10 -16z m327 -14 c4 -4 3 -5 -4 -2 -6 4 -13 2
-15 -5 -3 -8 -6 -6 -10 4 -7 17 15 19 29 3z m-147 -31 c0 -8 -19 -13 -24 -6
-3 5 1 9 9 9 8 0 15 -2 15 -3z m1489 -56 c0 -35 -3 -56 -6 -48 -3 8 -10 18
-15 21 -9 5 9 89 19 89 1 0 3 -28 2 -62z m-1449 48 c0 -3 -4 -8 -10 -11 -5 -3
-10 -1 -10 4 0 6 5 11 10 11 6 0 10 -2 10 -4z m351 -53 c12 -16 12 -17 -2 -6
-9 7 -20 9 -24 5 -5 -4 -5 -1 -1 6 9 16 11 15 27 -5z m-612 -14 c3 -11 1 -12
-11 -2 -8 7 -19 9 -23 5 -5 -4 -5 -1 -1 6 9 16 28 11 35 -9z m221 0 c0 -4 -5
-11 -10 -14 -19 -12 0 -25 21 -15 13 7 19 7 19 0 0 -5 -7 -10 -16 -10 -8 0
-12 -5 -9 -10 4 -6 13 -7 23 -1 14 7 18 5 18 -8 0 -9 -8 -18 -18 -18 -10 -1
-18 3 -18 9 0 5 -6 8 -13 5 -6 -2 -18 2 -25 9 -7 8 -8 14 -3 14 10 0 7 31 -3
49 -4 5 3 7 14 4 11 -3 20 -9 20 -14z m357 -13 c-1 -6 3 -10 10 -11 6 0 15 -4
19 -8 10 -10 14 -37 6 -38 -4 0 -14 -2 -23 -4 -9 -1 -16 4 -16 11 0 8 4 14 9
14 4 0 8 -6 8 -12 0 -9 3 -8 9 2 11 16 4 33 -9 25 -5 -3 -11 -1 -15 5 -3 5
-11 10 -16 10 -6 0 -8 -3 -5 -8 2 -4 -2 -15 -9 -25 -8 -12 -15 -14 -20 -8 -3
6 -1 11 5 11 6 0 9 4 5 9 -3 5 -1 12 5 16 6 4 8 10 6 14 -3 3 4 7 14 7 10 0
18 -5 17 -10z m-701 -5 c-3 -5 1 -14 9 -21 8 -7 12 -17 8 -23 -4 -6 -10 -1
-15 12 -5 14 -12 20 -20 15 -9 -6 -9 -3 1 9 14 18 26 24 17 8z m113 -4 c9 4
13 3 10 -1 -10 -11 -59 -17 -59 -8 0 15 13 23 23 13 5 -5 17 -7 26 -4z m525
-43 c3 -8 2 -12 -4 -9 -6 3 -10 10 -10 16 0 14 7 11 14 -7z m139 -5 c-8 -8
-13 -7 -18 2 -5 8 -4 10 3 5 7 -4 12 -2 12 5 0 7 3 9 7 6 4 -4 2 -12 -4 -18z
m44 6 c0 -8 -4 -12 -9 -9 -7 5 -12 -10 -9 -29 1 -5 -3 -6 -9 -2 -10 6 -7 17
13 43 12 15 14 15 14 -3z m-803 -34 c-2 -3 -12 3 -22 13 -16 17 -16 18 5 5 12
-7 20 -15 17 -18z m384 -5 c-2 -1 -12 -8 -22 -16 -18 -14 -18 -14 -6 7 8 12
18 19 23 16 4 -3 7 -6 5 -7z m326 -3 c4 -10 4 -14 0 -10 -4 4 -12 2 -19 -3 -8
-7 -12 -5 -12 5 0 8 4 12 9 9 4 -3 8 0 8 5 0 16 7 13 14 -6z m221 5 c5 4 5 2
1 -5 -8 -14 -36 -6 -36 9 0 7 5 6 13 -1 8 -6 18 -7 22 -3z m-89 -11 c4 -3 -4
-4 -16 -2 -30 6 -40 16 -12 12 12 -2 24 -6 28 -10z m-849 -29 c-3 -7 -5 -2 -5
12 0 14 2 19 5 13 2 -7 2 -19 0 -25z m678 -16 c-3 -8 0 -12 7 -9 7 2 12 10 10
16 -1 7 2 10 7 7 10 -6 9 -20 -4 -48 -4 -10 -12 -15 -17 -12 -6 4 -5 10 3 16
11 8 11 9 -1 5 -9 -2 -15 -16 -15 -34 0 -17 -3 -35 -7 -39 -12 -11 1 -24 17
-18 8 4 13 10 10 14 -3 5 -1 11 4 14 5 4 8 -1 7 -10 -3 -21 -32 -38 -41 -24
-11 18 -26 10 -22 -12 7 -38 18 -57 32 -52 7 3 16 0 20 -5 3 -6 10 -9 15 -6 5
3 7 -6 4 -20 -2 -14 0 -25 5 -25 5 0 9 -9 8 -19 0 -11 -5 -17 -9 -15 -4 3 -9
0 -9 -5 -4 -34 -3 -41 6 -39 6 1 9 8 7 15 -2 7 4 13 13 13 12 0 14 -4 6 -19
-6 -10 -8 -21 -5 -23 3 -3 -2 -8 -10 -11 -8 -3 -22 3 -32 14 -9 10 -12 19 -7
19 16 0 10 33 -7 47 -8 7 -10 13 -4 13 5 0 15 -5 21 -11 8 -8 13 -7 18 2 6 8
4 10 -5 4 -9 -6 -11 -4 -5 5 6 9 4 11 -5 5 -9 -6 -11 -4 -5 5 6 10 4 10 -10 2
-10 -5 -20 -17 -21 -26 -1 -9 2 -14 7 -10 5 3 9 1 9 -4 0 -14 -29 -36 -37 -28
-3 3 -2 6 4 6 10 0 11 35 0 46 -3 3 1 16 9 29 13 20 13 24 -3 36 -11 9 -14 10
-9 2 4 -8 2 -13 -4 -13 -6 0 -9 -4 -6 -8 3 -5 -1 -9 -9 -9 -8 0 -12 4 -10 8 3
4 -6 2 -19 -4 -18 -9 -22 -15 -14 -25 6 -7 19 -10 29 -7 11 4 20 2 20 -4 5
-37 2 -46 -11 -46 -8 0 -18 -9 -22 -20 -6 -19 -6 -18 -7 3 -1 12 -5 22 -11 22
-5 0 -9 -3 -8 -7 1 -5 -3 -18 -10 -29 -6 -12 -8 -24 -5 -28 3 -3 1 -6 -5 -6
-15 0 -15 6 -2 30 7 13 7 21 0 25 -5 3 -10 -1 -10 -9 0 -18 -15 -21 -25 -7 -7
12 29 33 40 23 5 -4 5 -1 1 6 -4 7 -12 10 -17 7 -5 -4 -9 -1 -9 4 0 6 7 11 15
11 8 0 15 -4 15 -10 0 -5 7 -7 15 -4 29 12 16 31 -20 29 -19 -1 -33 1 -30 3 2
3 0 13 -5 22 -8 15 -6 18 8 15 9 -2 19 -4 22 -4 3 -1 -1 -5 -8 -10 -11 -7 -11
-9 1 -14 10 -4 14 2 13 23 -1 26 -16 57 -16 33 0 -5 -7 -10 -14 -10 -11 0 -12
5 -6 17 5 10 6 21 2 26 -4 5 1 2 11 -5 9 -8 20 -11 24 -8 3 4 13 1 22 -5 13
-10 14 -10 5 1 -13 14 -7 51 8 51 5 0 7 4 4 9 -3 5 1 12 10 15 9 3 14 13 11
20 -7 17 18 41 32 32 13 -9 21 20 9 32 -8 8 -7 13 5 18 9 3 14 10 11 16 -3 5
-11 4 -20 -3 -10 -8 -14 -8 -14 0 0 6 5 11 11 11 5 0 7 6 3 13 -4 6 2 3 15 -7
12 -11 19 -26 16 -34z m82 24 c-1 -6 7 -11 19 -10 11 0 21 -5 21 -12 0 -9 -8
-9 -28 -2 -29 10 -46 35 -24 35 8 0 13 -5 12 -11z m-723 -11 c-4 -8 -11 -12
-16 -9 -6 4 -5 10 3 15 19 12 19 11 13 -6z m48 -7 c-2 -10 1 -24 7 -32 20 -23
-5 -27 -25 -4 -13 14 -15 22 -7 25 7 2 10 10 7 17 -3 7 1 13 9 13 9 0 12 -7 9
-19z m758 -3 c-16 -19 -31 -19 -24 0 4 8 10 12 15 9 5 -3 9 0 9 7 0 7 3 9 6 6
4 -4 1 -13 -6 -22z m-86 -13 c2 -4 -4 -8 -14 -8 -10 0 -16 4 -14 8 3 4 9 8 14
8 5 0 11 -4 14 -8z m-959 -51 c3 -5 2 -12 -3 -15 -5 -3 -9 1 -9 9 0 17 3 19
12 6z m279 -16 c-4 -8 -11 -12 -17 -8 -8 5 -7 8 1 11 7 2 9 9 6 14 -4 7 -2 8
4 4 6 -4 9 -13 6 -21z m-36 -10 c-3 -3 -9 2 -12 12 -6 14 -5 15 5 6 7 -7 10
-15 7 -18z m821 4 c-16 -10 -23 -4 -14 10 3 6 11 8 17 5 6 -4 5 -9 -3 -15z
m37 -14 c-1 -8 -5 -17 -8 -21 -5 -4 -4 16 1 34 3 9 9 -1 7 -13z m40 -10 c1 -9
-4 -11 -14 -7 -10 4 -12 7 -4 10 7 2 9 9 5 15 -3 7 -2 8 2 4 5 -4 10 -14 11
-22z m-805 -12 c13 -16 12 -17 -3 -4 -10 7 -18 15 -18 17 0 8 8 3 21 -13z
m630 4 c-13 -16 -5 -28 15 -20 8 3 14 0 14 -6 0 -16 -37 -14 -43 3 -3 7 0 19
6 25 15 15 22 14 8 -2z m-53 -29 c-2 -6 -11 -12 -19 -14 -7 -1 -19 -3 -25 -5
-7 -2 -11 1 -11 6 1 6 7 9 14 7 7 -2 13 2 13 8 0 5 7 10 16 10 9 0 14 -5 12
-12z m32 -8 c0 -5 -2 -10 -4 -10 -3 0 -8 5 -11 10 -3 6 -1 10 4 10 6 0 11 -4
11 -10z m85 -8 c-3 -3 -11 0 -18 7 -9 10 -8 11 6 5 10 -3 15 -9 12 -12z m4
-34 c-1 -1 3 -13 9 -24 15 -27 -5 -49 -28 -32 -13 8 -12 9 2 5 24 -8 30 4 11
25 -10 12 -12 18 -4 18 7 0 9 5 5 13 -4 6 -4 9 0 5 4 -3 7 -8 5 -10z m77 -11
c1 -10 -2 -15 -7 -11 -5 3 -9 0 -9 -7 0 -18 -10 -5 -15 19 -2 14 1 19 12 18 9
-2 17 -10 19 -19z m81 -2 c0 -17 -13 -20 -21 -6 -4 5 0 12 6 14 7 3 13 6 14 6
0 1 1 -6 1 -14z m-566 -52 c13 -16 12 -17 -3 -4 -10 7 -18 15 -18 17 0 8 8 3
21 -13z m69 9 c0 -5 -7 -9 -15 -9 -8 0 -12 4 -9 9 3 4 9 8 15 8 5 0 9 -4 9 -8z
m340 -32 c0 -5 -2 -10 -4 -10 -3 0 -8 5 -11 10 -3 6 -1 10 4 10 6 0 11 -4 11
-10z m-576 -31 c27 15 56 9 55 -11 0 -10 -2 -10 -6 0 -8 20 -22 14 -18 -8 3
-18 1 -19 -18 -9 -18 9 -20 9 -10 -1 9 -10 8 -18 -3 -35 -12 -18 -12 -22 0
-22 7 0 13 7 12 15 0 8 7 16 17 17 9 2 17 -1 17 -6 0 -5 -6 -9 -14 -9 -10 0
-13 -7 -11 -21 3 -17 1 -19 -10 -9 -10 8 -18 6 -34 -11 -11 -12 -18 -27 -14
-32 3 -6 1 -7 -5 -3 -7 4 -12 2 -12 -3 0 -6 0 -14 0 -18 0 -5 4 -8 9 -8 5 0
13 -3 16 -7 4 -4 17 -3 29 3 18 9 19 8 5 -3 -9 -7 -15 -21 -13 -30 1 -11 -3
-15 -14 -11 -9 4 -13 2 -9 -4 3 -5 -1 -10 -9 -10 -10 0 -11 4 -4 11 5 5 10 13
10 16 0 9 -38 6 -46 -3 -4 -4 -12 -7 -18 -7 -6 0 -4 5 4 10 8 5 11 10 6 10 -5
0 -3 7 4 15 10 13 10 19 -3 33 -15 16 -15 21 -2 39 8 11 12 23 9 25 -15 15
-11 49 6 58 12 6 17 16 13 26 -5 14 -3 14 15 3 17 -11 25 -11 46 0z m411 1
c-3 -5 11 -25 32 -44 37 -34 38 -35 19 -53 -10 -10 -16 -13 -12 -6 9 16 -6 24
-24 13 -18 -11 -51 16 -43 36 3 8 9 11 14 8 5 -3 6 -11 3 -17 -4 -7 -4 -9 1
-5 4 4 14 3 22 -3 9 -9 13 -8 13 0 0 6 -6 11 -12 11 -10 0 -9 3 1 9 9 6 10 11
2 15 -6 4 -11 2 -11 -5 0 -8 -8 -5 -20 6 -19 17 -19 19 -2 31 21 16 25 17 17
4z m-37 -20 c10 -17 10 -21 -2 -26 -8 -3 -12 -12 -10 -19 3 -7 2 -15 -3 -18
-4 -3 -8 8 -8 24 -1 16 3 29 8 29 5 0 4 7 -3 15 -7 8 -8 15 -4 15 5 0 15 -9
22 -20z m-495 -9 c4 -1 7 -13 6 -28 -1 -16 0 -33 2 -39 2 -7 0 -11 -6 -10 -5
0 -9 4 -8 7 1 4 -9 16 -22 29 -26 24 -24 50 3 45 9 -2 20 -4 25 -4z m702 0 c3
-6 -3 -15 -14 -20 -15 -8 -22 -7 -32 7 -11 14 -11 15 0 5 15 -13 44 -6 35 8
-3 5 -3 9 0 9 3 0 7 -4 11 -9z m-274 -54 c-10 -9 -11 -8 -5 6 3 10 9 15 12 12
3 -3 0 -11 -7 -18z m-305 -36 c-6 -8 16 -33 25 -28 2 1 1 -2 -3 -7 -5 -6 -14
-2 -22 9 -13 18 -13 35 0 35 3 0 3 -4 0 -9z m-122 -19 c3 -5 -1 -9 -9 -9 -8 0
-12 4 -9 9 3 4 7 8 9 8 2 0 6 -4 9 -8z m111 -11 c3 -5 2 -12 -3 -15 -5 -3 -9
1 -9 9 0 17 3 19 12 6z m62 -33 c1 -13 3 -33 6 -45 4 -17 2 -21 -11 -16 -9 4
-11 8 -5 10 14 5 6 33 -9 33 -5 0 -7 -4 -4 -9 3 -5 -1 -12 -10 -15 -15 -6 -15
-4 -2 16 8 13 18 29 22 36 10 17 12 15 13 -10z m120 0 c-3 -8 -6 -5 -6 6 -1
11 2 17 5 13 3 -3 4 -12 1 -19z m103 -29 c0 -5 -4 -9 -8 -9 -5 0 -9 7 -9 15 0
8 4 12 9 9 4 -3 8 -9 8 -15z m690 15 c0 -8 -19 -13 -24 -6 -3 5 1 9 9 9 8 0
15 -2 15 -3z m-756 -20 c3 -8 2 -12 -4 -9 -6 3 -10 10 -10 16 0 14 7 11 14 -7z
m-352 -32 c9 -9 8 -12 -4 -12 -8 0 -21 6 -27 14 -10 11 -9 14 4 12 8 -1 21 -8
27 -14z m308 -2 c-6 -11 -13 -20 -16 -20 -2 0 0 9 6 20 6 11 13 20 16 20 2 0
0 -9 -6 -20z m149 6 c8 -10 9 -16 1 -21 -6 -4 -9 -1 -8 7 2 8 -5 12 -17 10
-16 -2 -17 -1 -5 7 19 13 15 14 29 -3z m-368 -13 c13 -16 12 -17 -3 -4 -10 7
-18 15 -18 17 0 8 8 3 21 -13z m74 7 c4 -6 11 -7 17 -4 6 4 8 2 5 -3 -4 -6 -1
-15 6 -21 12 -10 18 -12 37 -12 6 0 10 -5 10 -11 0 -8 -4 -8 -14 0 -10 8 -16
9 -21 1 -3 -5 -12 -10 -18 -10 -8 0 -8 3 1 9 10 6 6 15 -18 35 -17 14 -27 26
-21 26 5 0 13 -5 16 -10z m459 -9 c4 -5 -3 -7 -14 -4 -23 6 -26 13 -6 13 8 0
17 -4 20 -9z m-484 -15 c0 -2 -7 -7 -16 -10 -8 -3 -12 -2 -9 4 6 10 25 14 25
6z m410 -6 c0 -5 7 -7 15 -4 9 4 15 0 15 -10 0 -10 -6 -13 -15 -10 -11 5 -13
2 -9 -9 3 -9 11 -14 18 -11 7 3 13 -2 13 -10 0 -8 -6 -12 -15 -8 -11 4 -13 1
-7 -9 6 -11 5 -12 -5 -2 -8 7 -19 9 -29 4 -17 -9 -23 -11 -43 -11 -6 0 -4 -8
6 -19 12 -13 14 -21 6 -26 -6 -3 -10 -3 -9 2 4 25 -4 25 -22 -2 -12 -16 -19
-23 -16 -14 3 9 0 22 -6 29 -9 9 -9 11 -1 7 16 -9 25 18 12 31 -8 8 -4 10 16
6 21 -3 26 -1 20 8 -6 10 -5 10 7 1 9 -7 20 -8 29 -3 8 5 18 6 24 3 5 -3 6 -1
2 5 -4 6 -12 9 -19 7 -7 -3 -21 7 -31 22 -11 14 -14 23 -8 19 6 -3 13 -2 17 4
8 13 35 13 35 0z m-476 -8 c3 -5 -1 -9 -9 -9 -8 0 -12 4 -9 9 3 4 7 8 9 8 2 0
6 -4 9 -8z m96 -8 c0 -8 -5 -12 -10 -9 -6 4 -8 11 -5 16 9 14 15 11 15 -7z
m233 -9 c-7 -21 -12 -19 -10 4 0 11 5 18 9 15 4 -3 5 -11 1 -19z m-271 -39
c-6 -10 -8 -15 -11 -34 0 -5 -8 -9 -17 -9 -15 0 -15 1 0 12 14 11 14 14 2 25
-12 9 -13 15 -3 31 11 18 13 18 24 3 7 -9 9 -22 5 -28z m-222 9 c5 3 11 1 14
-4 4 -5 1 -13 -5 -17 -13 -8 -29 14 -28 36 1 11 3 10 6 -3 2 -9 8 -15 13 -12z
m272 6 c-8 -5 -13 -11 -13 -15 1 -3 -2 -7 -6 -8 -3 -2 -7 4 -8 12 -2 10 6 17
19 18 14 1 17 -1 8 -7z m28 -19 c-11 -13 -17 -28 -14 -33 3 -5 0 -9 -5 -9 -15
0 -14 12 4 36 8 12 12 23 10 26 -3 3 1 5 9 5 12 0 11 -6 -4 -25z m38 -47 c-3
-3 -9 2 -12 12 -6 14 -5 15 5 6 7 -7 10 -15 7 -18z m153 8 c13 -16 12 -17 -3
-4 -10 7 -18 15 -18 17 0 8 8 3 21 -13z m162 9 c3 8 6 8 6 2 1 -10 -28 -42
-30 -33 -7 37 -7 40 6 29 10 -8 14 -7 18 2z m-426 -37 c0 -8 -6 -16 -14 -19
-11 -4 -11 -1 -3 14 13 24 17 25 17 5z m123 -5 c-10 -19 -6 -24 13 -21 4 1 3
-7 -2 -18 -6 -10 -7 -22 -3 -26 4 -5 1 -5 -5 -1 -8 4 -13 2 -13 -5 0 -7 -3 -9
-6 -6 -4 4 -1 13 5 21 8 9 9 21 5 28 -12 18 -11 32 1 40 16 12 17 10 5 -12z
m-58 -5 c2 3 5 -2 5 -10 0 -10 -4 -12 -12 -5 -7 5 -14 8 -17 5 -2 -3 -5 2 -5
10 0 10 4 12 12 5 7 -5 14 -8 17 -5z m378 -10 c0 -2 -6 -5 -13 -8 -8 -3 -14 1
-14 8 0 7 6 11 14 8 7 -3 13 -6 13 -8z m-140 -9 c0 -2 -8 -10 -17 -17 -16 -13
-17 -12 -4 4 13 16 21 21 21 13z m-126 -35 c17 -19 17 -19 0 -17 -9 2 -18 10
-20 19 -3 21 -1 21 20 -2z m-150 -12 c-2 -5 -12 -5 -21 -2 -12 5 -14 3 -8 -8
8 -12 6 -12 -8 0 -22 17 -22 17 12 17 17 0 28 -3 25 -7z m42 -32 c14 -8 13
-48 -1 -45 -5 2 -9 6 -7 11 7 22 6 31 -5 32 -6 0 -14 3 -18 7 -9 8 16 5 31 -5z
m308 4 c3 -5 -1 -11 -9 -14 -9 -4 -12 -1 -8 9 6 16 10 17 17 5z m-247 -29 c8
-36 8 -47 -1 -52 -5 -3 -10 14 -11 38 -2 41 5 49 12 14z m40 13 c0 -8 -4 -12
-9 -9 -5 3 -6 10 -3 15 9 13 12 11 12 -6z m63 5 c3 -1 9 -2 13 -1 5 1 6 -3 2
-9 -5 -8 -11 -8 -19 -1 -8 7 -16 7 -23 0 -6 -6 -10 -5 -10 5 0 11 15 14 37 6z
m-406 -42 c-3 -4 -11 -8 -17 -7 -9 0 -9 2 0 5 7 3 9 13 6 22 -4 14 -3 14 5 2
6 -8 8 -18 6 -22z m24 7 c-3 -3 -9 2 -12 12 -6 14 -5 15 5 6 7 -7 10 -15 7
-18z m257 -4 c2 -11 -1 -21 -6 -21 -6 0 -7 -5 -3 -12 4 -6 3 -8 -4 -5 -5 4 -9
15 -7 25 2 9 4 23 4 31 1 19 11 9 16 -18z m-319 -16 c1 -9 -4 -11 -14 -7 -10
4 -12 7 -4 10 7 2 9 9 5 15 -3 7 -2 8 2 4 5 -4 10 -14 11 -22z m444 19 c0 -8
-19 -13 -24 -6 -3 5 1 9 9 9 8 0 15 -2 15 -3z m75 -25 c-10 -15 -25 -10 -19 6
4 8 10 12 15 9 5 -3 7 -10 4 -15z m-35 1 c0 -5 -7 -7 -15 -4 -8 4 -15 8 -15
10 0 2 7 4 15 4 8 0 15 -4 15 -10z m-630 -35 c11 -13 10 -14 -4 -9 -9 3 -16
10 -16 15 0 13 6 11 20 -6z m691 -12 c13 -16 12 -17 -3 -4 -10 7 -18 15 -18
17 0 8 8 3 21 -13z m176 -15 c2 -18 0 -20 -7 -8 -12 18 -13 30 -2 30 4 0 9
-10 9 -22z m-342 -39 c11 -16 1 -19 -13 -3 -7 8 -8 14 -3 14 5 0 13 -5 16 -11z
m418 -4 c-3 -9 -8 -14 -10 -11 -3 3 -2 9 2 15 9 16 15 13 8 -4z m-448 -174 c3
-5 2 -12 -3 -15 -5 -3 -9 1 -9 9 0 17 3 19 12 6z m54 -34 c14 4 13 3 -1 -7 -9
-6 -15 -16 -12 -24 3 -7 -2 -13 -10 -13 -11 0 -12 5 -6 17 6 10 5 22 0 28 -7
8 -7 9 1 3 6 -5 19 -7 28 -4z m72 -10 c-10 -9 -11 -8 -5 6 3 10 9 15 12 12 3
-3 0 -11 -7 -18z m-1504 -3 c-3 -3 -12 -4 -19 -1 -8 3 -5 6 6 6 11 1 17 -2 13
-5z m-44 -21 c-3 -7 -13 -13 -22 -14 -9 0 -24 -2 -34 -4 -9 -2 -15 1 -11 6 3
5 14 9 25 9 10 0 19 4 19 8 0 5 6 9 14 9 8 0 12 -6 9 -14z m1663 5 c4 -7 3 -8
-4 -4 -7 4 -12 2 -12 -5 0 -7 -3 -10 -6 -6 -6 5 3 27 11 27 2 0 7 -5 11 -12z
m-255 -21 c-10 -9 -11 -8 -5 6 3 10 9 15 12 12 3 -3 0 -11 -7 -18z m213 14 c3
-5 -1 -11 -9 -14 -9 -4 -12 -1 -8 9 6 16 10 17 17 5z m-249 -10 c3 -5 2 -12
-3 -15 -5 -3 -9 1 -9 9 0 17 3 19 12 6z m-1510 -31 c-27 -12 -43 -12 -25 0 8
5 22 9 30 9 10 0 8 -3 -5 -9z m1762 -5 c0 -8 -4 -12 -9 -9 -5 3 -6 10 -3 15 9
13 12 11 12 -6z m-226 -12 c13 -16 12 -17 -3 -4 -10 7 -18 15 -18 17 0 8 8 3
21 -13z m-1587 -5 c-3 -5 -10 -6 -15 -3 -5 4 -9 2 -9 -3 0 -5 -6 -9 -12 -9 -7
0 -24 -3 -38 -8 -36 -11 -15 7 23 20 39 13 58 14 51 3z m-104 -27 c0 -10 -24
-21 -43 -21 -7 0 -3 7 7 15 22 17 36 19 36 6z m2051 -14 c-13 -13 -26 -3 -16
12 3 6 11 8 17 5 6 -4 6 -10 -1 -17z m476 8 c0 -8 -4 -15 -9 -15 -4 0 -8 7 -8
15 0 8 4 15 8 15 5 0 9 -7 9 -15z m-2592 -15 c3 -5 -1 -10 -10 -10 -9 0 -13 5
-10 10 3 6 8 10 10 10 2 0 7 -4 10 -10z m1200 -10 c-3 -5 -13 -6 -21 -3 -12 4
-13 8 -3 14 15 9 32 2 24 -11z m342 5 c0 -8 -4 -12 -9 -9 -5 3 -6 10 -3 15 9
13 12 11 12 -6z m-1618 -21 c-64 -20 -82 -16 -24 4 28 10 54 16 59 13 5 -2
-11 -10 -35 -17z m6 -24 c3 -6 -1 -7 -9 -4 -18 7 -21 14 -7 14 6 0 13 -4 16
-10z m2128 -6 c4 -1 13 -2 20 -3 8 -1 8 -4 -3 -11 -9 -5 -19 -5 -27 1 -7 6
-17 8 -22 4 -7 -3 -8 0 -5 9 3 9 11 13 18 9 6 -4 14 -8 19 -9z m-2173 2 c0 -3
-4 -8 -10 -11 -5 -3 -10 -1 -10 4 0 6 5 11 10 11 6 0 10 -2 10 -4z m2210 -177
c-7 -11 -14 -18 -17 -15 -3 3 0 12 7 21 18 21 23 19 10 -6z m-510 1 c0 -5 -2
-10 -4 -10 -3 0 -8 5 -11 10 -3 6 -1 10 4 10 6 0 11 -4 11 -10z m-333 -15 c0
-8 -4 -12 -9 -9 -5 3 -6 10 -3 15 9 13 12 11 12 -6z m78 -5 c3 -6 -1 -7 -9 -4
-18 7 -21 14 -7 14 6 0 13 -4 16 -10z m41 -63 c1 -10 -2 -15 -7 -11 -5 3 -9 0
-9 -6 0 -6 7 -13 15 -16 10 -4 13 -14 8 -32 -3 -14 -2 -23 3 -20 5 4 10 -18
11 -48 1 -30 -3 -54 -8 -54 -6 0 -7 -4 -4 -10 3 -5 -4 -10 -15 -10 -16 0 -20
4 -16 16 3 8 2 12 -4 9 -6 -3 -10 0 -10 8 0 8 -6 20 -14 26 -11 9 -12 18 -3
42 6 16 17 27 23 25 7 -2 10 5 9 17 -1 12 -3 22 -4 22 -2 0 -3 14 -4 31 -1 22
2 31 12 29 8 -1 15 -9 17 -18z m329 -57 c3 -5 1 -10 -4 -10 -6 0 -11 5 -11 10
0 6 2 10 4 10 3 0 8 -4 11 -10z m164 -43 c0 -9 -2 -9 -5 0 -3 7 -13 9 -22 6
-14 -4 -14 -3 -2 5 16 12 30 7 29 -11z m483 -5 c-1 -8 2 -11 7 -8 17 11 21
-10 6 -30 -13 -17 -14 -18 -15 -1 0 9 -6 16 -12 15 -7 -2 -12 3 -10 11 2 8 -3
18 -10 23 -9 6 -5 8 12 6 14 -2 24 -9 22 -16z m-712 -12 c0 -5 -2 -10 -4 -10
-3 0 -8 5 -11 10 -3 6 -1 10 4 10 6 0 11 -4 11 -10z m25 0 c3 -5 1 -10 -4 -10
-6 0 -11 5 -11 10 0 6 2 10 4 10 3 0 8 -4 11 -10z m1012 -386 c-3 -3 -12 -4
-19 -1 -8 3 -5 6 6 6 11 1 17 -2 13 -5z m-1064 -33 c3 -13 1 -18 -9 -14 -7 2
-10 12 -7 20 5 12 3 14 -7 8 -9 -5 -11 -4 -6 4 9 15 22 7 29 -18z m1002 9 c-3
-5 -1 -10 4 -10 6 0 11 -5 11 -11 0 -8 -5 -8 -15 1 -13 11 -12 30 1 30 3 0 2
-4 -1 -10z m-1025 -75 c0 -2 -7 -5 -15 -9 -9 -3 -15 0 -15 9 0 9 6 12 15 9 8
-4 15 -7 15 -9z m-925 -24 c3 -6 -4 -8 -16 -6 -30 6 -37 15 -11 15 11 0 23 -4
27 -9z m1910 -1 c-3 -5 -12 -10 -18 -10 -7 0 -6 4 3 10 19 12 23 12 15 0z
m-136 -157 c-7 -7 -14 -11 -18 -8 -3 3 1 10 9 15 10 7 11 10 3 10 -7 0 -13 5
-13 11 0 8 5 8 15 -1 12 -10 13 -16 4 -27z m-1919 -13 c0 -5 -2 -10 -4 -10 -3
0 -8 5 -11 10 -3 6 -1 10 4 10 6 0 11 -4 11 -10z m-120 -80 c0 -5 -5 -10 -11
-10 -5 0 -7 5 -4 10 3 6 8 10 11 10 2 0 4 -4 4 -10z m2790 -30 c0 -5 -5 -10
-11 -10 -5 0 -7 5 -4 10 3 6 8 10 11 10 2 0 4 -4 4 -10z m-2760 -64 c0 -2 -7
-6 -15 -10 -8 -3 -15 -1 -15 4 0 6 7 10 15 10 8 0 15 -2 15 -4z m60 -52 c0 -2
-7 -4 -15 -4 -8 0 -15 4 -15 10 0 5 7 7 15 4 8 -4 15 -8 15 -10z"/>
<path d="M1284 3888 c3 -10 0 -18 -6 -18 -6 0 -9 -3 -5 -6 3 -3 2 -17 -3 -30
-6 -14 -6 -24 -1 -24 16 0 32 61 20 79 -9 14 -10 14 -5 -1z"/>
<path d="M1095 3231 c-3 -5 -1 -12 4 -15 5 -3 11 1 15 9 6 16 -9 21 -19 6z"/>
<path d="M1032 3010 c0 -19 2 -27 5 -17 2 9 2 25 0 35 -3 9 -5 1 -5 -18z"/>
<path d="M1030 2931 c0 -25 6 -27 13 -6 4 8 2 17 -3 20 -6 4 -10 -3 -10 -14z"/>
<path d="M1031 2895 c0 -13 35 -55 46 -55 4 0 16 6 25 14 15 11 14 13 -13 13
-17 0 -35 7 -44 19 -8 10 -14 15 -14 9z"/>
<path d="M1745 3440 c3 -5 8 -10 11 -10 2 0 4 5 4 10 0 6 -5 10 -11 10 -5 0
-7 -4 -4 -10z"/>
<path d="M1667 3356 c-6 -16 2 -28 14 -20 12 7 11 34 0 34 -5 0 -11 -6 -14
-14z"/>
<path d="M1675 3310 c3 -6 3 -10 -2 -10 -4 0 -8 -21 -8 -48 1 -26 -3 -53 -9
-60 -7 -9 -5 -12 5 -10 8 2 20 12 28 22 12 16 12 20 -1 30 -13 10 -14 16 -3
35 8 15 15 20 19 12 4 -6 3 -11 -3 -11 -6 0 -8 -7 -5 -15 5 -11 9 -11 19 -2
10 9 9 16 -4 34 -16 22 -48 42 -36 23z"/>
<path d="M1810 3220 c0 -5 5 -10 11 -10 5 0 7 5 4 10 -3 6 -8 10 -11 10 -2 0
-4 -4 -4 -10z"/>
<path d="M2395 3160 c3 -5 11 -10 16 -10 6 0 7 5 4 10 -3 6 -11 10 -16 10 -6
0 -7 -4 -4 -10z"/>
<path d="M1855 3010 c-7 -12 -7 -12 23 -15 18 -2 20 0 11 11 -14 17 -25 18
-34 4z"/>
<path d="M1946 3002 c-3 -5 1 -9 9 -9 8 0 12 4 9 9 -3 4 -7 8 -9 8 -2 0 -6 -4
-9 -8z"/>
<path d="M1753 2873 c2 -12 7 -26 11 -30 4 -5 6 -1 4 7 -3 16 26 19 75 6 l28
-7 -21 21 c-21 21 -35 27 -25 10 8 -12 3 -13 -29 0 -19 7 -26 6 -26 -3 0 -8
-4 -7 -10 3 -8 12 -9 10 -7 -7z"/>
<path d="M1830 2753 c0 -6 4 -14 9 -17 4 -3 7 -21 6 -41 -1 -32 24 -73 48 -74
4 -1 10 -1 15 -1 4 0 -2 -7 -12 -15 -11 -8 -14 -15 -8 -15 7 0 12 -4 12 -9 0
-5 -11 -8 -24 -7 -14 2 -30 -1 -38 -5 -10 -7 -10 -9 0 -9 10 0 10 -5 1 -22 -6
-13 -8 -20 -4 -16 4 4 17 3 29 -3 20 -10 20 -9 2 5 -10 8 -15 19 -11 25 10 17
25 13 25 -6 0 -18 15 -8 15 10 1 7 5 11 11 10 5 -1 9 13 9 30 -1 18 4 36 9 40
7 6 4 7 -6 3 -20 -6 -24 4 -7 21 8 8 7 13 -2 18 -7 5 -10 4 -6 -1 3 -5 0 -16
-6 -25 -11 -14 -14 -14 -31 3 -12 10 -14 18 -7 18 7 0 9 5 4 13 -4 6 -8 19 -8
27 -1 18 -24 60 -25 43z"/>
<path d="M1745 2721 c-6 -11 -5 -13 18 -15 6 0 12 -6 12 -13 0 -6 3 -14 6 -17
3 -3 6 1 6 9 0 21 -33 49 -42 36z"/>
<path d="M1740 2576 c0 -8 5 -18 11 -22 8 -4 7 -9 -2 -15 -8 -5 -9 -9 -3 -9 6
0 17 7 24 16 11 12 11 15 -1 12 -9 -2 -13 4 -11 15 2 9 -2 17 -8 17 -5 0 -10
-6 -10 -14z"/>
<path d="M1796 2572 c-3 -5 1 -9 9 -9 8 0 12 4 9 9 -3 4 -7 8 -9 8 -2 0 -6 -4
-9 -8z"/>
<path d="M1908 2538 c-10 -24 -9 -32 5 -34 8 -1 13 6 12 17 -2 24 -11 33 -17
17z"/>
<path d="M1527 2083 c-4 -3 0 -15 10 -25 12 -13 13 -18 3 -18 -7 0 -11 -3 -7
-6 3 -3 11 -3 17 1 8 5 7 11 -2 23 -11 14 -10 15 6 9 16 -6 17 -5 6 8 -14 16
-23 19 -33 8z"/>
<path d="M1481 1992 c-1 -7 -5 -11 -9 -8 -4 2 -8 -6 -8 -20 0 -13 1 -24 3 -24
1 0 14 12 29 26 14 15 19 24 11 21 -9 -3 -18 -1 -21 6 -3 9 -5 8 -5 -1z"/>
<path d="M1360 1936 c0 -2 7 -9 15 -16 13 -11 14 -10 9 4 -5 14 -24 23 -24 12z"/>
<path d="M1820 1874 c16 -20 26 -26 28 -17 2 7 8 10 14 7 7 -4 8 -2 4 5 -4 6
-12 9 -17 5 -6 -3 -20 2 -32 13 -18 15 -17 13 3 -13z"/>
<path d="M1450 1879 c0 -5 5 -7 10 -4 6 3 10 8 10 11 0 2 -4 4 -10 4 -5 0 -10
-5 -10 -11z"/>
<path d="M1940 1781 c0 -5 5 -13 10 -16 6 -3 10 -2 10 4 0 5 -4 13 -10 16 -5
3 -10 2 -10 -4z"/>
<path d="M1633 1395 c0 -8 4 -12 9 -9 5 3 6 10 3 15 -9 13 -12 11 -12 -6z"/>
<path d="M1936 1190 c9 -16 18 -30 20 -30 3 0 2 5 -1 10 -3 6 -2 10 4 10 5 0
12 -6 14 -12 4 -9 6 -8 6 2 1 9 -12 23 -28 33 l-30 17 15 -30z"/>
<path d="M1970 1146 c0 -2 7 -9 15 -16 9 -7 15 -8 15 -2 0 5 -7 12 -15 16 -8
3 -15 4 -15 2z"/>
<path d="M2015 1140 c-4 -7 -1 -16 6 -21 17 -10 26 8 11 23 -6 6 -12 6 -17 -2z"/>
<path d="M2017 1099 c7 -7 15 -10 18 -7 3 3 -2 9 -12 12 -14 6 -15 5 -6 -5z"/>
<path d="M1865 1059 c-7 -10 39 -52 60 -55 12 -2 14 1 7 8 -6 6 -8 16 -6 23 9
21 -49 44 -61 24z m26 -16 c13 -16 12 -17 -3 -4 -17 13 -22 21 -14 21 2 0 10
-8 17 -17z"/>
<path d="M1980 1030 c0 -5 5 -10 11 -10 5 0 7 5 4 10 -3 6 -8 10 -11 10 -2 0
-4 -4 -4 -10z"/>
<path d="M1675 550 c3 -5 8 -10 11 -10 2 0 4 5 4 10 0 6 -5 10 -11 10 -5 0 -7
-4 -4 -10z"/>
<path d="M2204 2658 c-4 -7 -2 -8 4 -4 7 4 12 1 12 -7 0 -8 -7 -18 -16 -21 -8
-3 -13 -10 -9 -16 9 -15 44 11 37 28 -3 9 -1 13 5 9 5 -3 10 0 10 6 0 16 -34
20 -43 5z"/>
<path d="M2170 2581 c0 -5 7 -12 16 -15 14 -5 15 -4 4 9 -14 17 -20 19 -20 6z"/>
<path d="M2253 2510 c-1 -11 2 -20 8 -20 5 0 9 5 9 11 0 5 6 7 13 3 8 -5 8 -2
-2 9 -18 22 -26 21 -28 -3z"/>
<path d="M2182 2453 c-9 -15 -7 -19 8 -20 10 -1 17 4 16 12 -4 24 -14 28 -24
8z"/>
<path d="M1810 2381 c-8 -6 -18 -7 -24 -4 -5 4 -6 1 -1 -7 6 -10 4 -12 -8 -7
-12 4 -15 1 -11 -16 3 -12 7 -29 8 -37 2 -8 -1 -23 -5 -32 -6 -11 -5 -19 3
-24 7 -4 10 -4 6 1 -4 4 2 15 13 24 11 9 21 27 24 40 2 12 9 29 16 37 9 11 9
14 0 14 -7 0 -9 5 -6 10 8 12 4 12 -15 1z m-1 -43 c-8 -14 -14 -17 -22 -9 -7
7 -6 15 3 25 17 22 32 9 19 -16z"/>
<path d="M1766 2221 c-3 -4 5 -7 17 -7 12 1 29 -2 37 -8 12 -8 13 -8 3 4 -15
16 -50 23 -57 11z"/>
<path d="M2290 2341 c0 -6 4 -13 10 -16 6 -3 7 1 4 9 -7 18 -14 21 -14 7z"/>
<path d="M1703 2360 c-1 -11 2 -20 7 -20 4 0 7 7 6 15 -3 23 -12 26 -13 5z"/>
<path d="M1806 2081 c-4 -5 -2 -12 3 -15 5 -4 12 -2 15 3 4 5 2 12 -3 15 -5 4
-12 2 -15 -3z"/>
<path d="M2328 3863 c0 -5 -2 -14 -2 -22 -2 -21 -42 -45 -52 -30 -5 8 -3 9 6
4 9 -5 11 -4 6 3 -10 16 -46 -3 -46 -23 0 -18 4 -18 48 -6 18 6 30 6 27 1 -3
-4 4 -6 15 -3 21 6 27 37 9 48 -6 4 -8 13 -5 21 3 8 3 14 1 14 -3 0 -6 -3 -7
-7z"/>
<path d="M2270 3771 c0 -5 -9 -7 -20 -4 -11 3 -20 1 -20 -3 0 -5 13 -10 30
-11 22 -2 28 1 23 12 -6 17 -13 20 -13 6z"/>
<path d="M2155 3760 c-3 -5 -1 -10 4 -10 6 0 11 5 11 10 0 6 -2 10 -4 10 -3 0
-8 -4 -11 -10z"/>
<path d="M2324 3736 c1 -8 5 -18 8 -22 4 -3 5 1 4 10 -1 8 -5 18 -8 22 -4 3
-5 -1 -4 -10z"/>
<path d="M2289 3723 c-13 -16 -12 -17 4 -4 16 13 21 21 13 21 -2 0 -10 -8 -17
-17z"/>
<path d="M2354 3696 c0 -12 6 -23 13 -23 9 0 10 4 3 12 -5 7 -7 14 -4 17 3 3
1 8 -3 11 -5 3 -9 -5 -9 -17z"/>
<path d="M2067 3677 c4 -7 0 -8 -12 -3 -15 5 -16 4 -5 -9 12 -15 14 -15 23 1
8 13 11 14 19 3 8 -12 9 -12 6 0 -2 8 -12 15 -21 17 -10 1 -14 -2 -10 -9z"/>
<path d="M2140 3675 c-7 -9 -10 -18 -6 -22 3 -3 6 -1 6 6 0 7 5 9 11 6 6 -4 8
-13 5 -21 -3 -8 -1 -14 4 -14 13 0 13 27 0 35 -6 4 -8 11 -5 16 10 15 -1 10
-15 -6z"/>
<path d="M2141 3602 c-7 -14 -6 -19 3 -19 6 0 13 9 13 19 1 10 0 18 -2 18 -2
0 -9 -8 -14 -18z"/>
<path d="M1845 3590 c3 -5 8 -10 11 -10 2 0 4 5 4 10 0 6 -5 10 -11 10 -5 0
-7 -4 -4 -10z"/>
<path d="M2086 3574 c-9 -8 -22 -12 -28 -8 -10 6 -10 4 0 -7 10 -11 16 -10 34
9 12 12 20 22 16 22 -4 0 -14 -7 -22 -16z"/>
<path d="M2325 3551 c-3 -5 -2 -12 3 -15 5 -3 9 1 9 9 0 17 -3 19 -12 6z"/>
<path d="M2009 3547 c-6 -17 -5 -37 3 -37 6 0 7 7 4 16 -4 12 -2 15 9 11 8 -4
16 -3 19 1 3 4 -4 9 -15 9 -10 1 -19 1 -20 0z"/>
<path d="M2244 3524 c0 -13 4 -24 8 -24 4 0 8 2 8 4 0 2 3 11 6 19 3 8 -1 17
-8 20 -10 3 -14 -3 -14 -19z"/>
<path d="M2223 3485 c0 -8 4 -12 9 -9 5 3 6 10 3 15 -9 13 -12 11 -12 -6z"/>
<path d="M2260 3465 c-11 -13 -10 -14 4 -9 9 3 16 10 16 15 0 13 -6 11 -20 -6z"/>
<path d="M2856 3256 c4 -9 1 -16 -6 -16 -7 0 -19 -8 -27 -17 -13 -16 -13 -16
-4 4 6 12 7 24 2 27 -9 6 -36 -43 -32 -59 1 -5 -6 -2 -16 6 -10 9 -24 14 -31
12 -8 -3 -10 1 -6 11 7 17 24 22 24 6 0 -5 6 -7 13 -4 8 3 14 11 14 19 0 11
-4 12 -13 4 -8 -7 -14 -7 -19 1 -7 12 -26 14 -24 3 5 -28 -1 -35 -18 -22 -15
12 -16 12 -8 -1 15 -24 17 -52 3 -44 -7 4 -8 3 -4 -5 4 -6 12 -8 18 -5 7 5 8
2 2 -7 -10 -16 -15 -44 -7 -35 3 3 12 -2 20 -12 8 -9 12 -11 8 -4 -3 7 1 15
11 19 10 4 19 2 22 -5 2 -7 8 -10 12 -7 5 3 11 1 14 -4 7 -10 -13 -9 -31 2 -7
5 -9 1 -6 -13 3 -12 0 -20 -6 -20 -7 0 -9 -5 -6 -10 3 -6 0 -13 -9 -16 -10 -4
-13 -16 -10 -41 6 -46 11 -53 37 -53 22 0 22 -1 -3 -20 -22 -17 -21 -24 1 -22
4 1 4 -8 1 -20 -3 -14 -1 -19 6 -14 7 4 15 0 18 -9 4 -9 13 -14 20 -11 7 3 16
1 19 -4 4 -6 13 -7 23 -1 9 4 27 7 39 6 15 -1 20 2 14 9 -15 19 -8 46 13 52
20 7 20 7 -4 17 l-25 10 25 5 c35 6 50 20 50 48 0 29 19 31 50 4 13 -11 29
-20 35 -20 7 0 15 -7 19 -15 3 -8 10 -15 16 -15 39 0 -49 97 -96 106 -19 3
-37 10 -40 15 -5 9 15 7 78 -7 29 -6 68 -51 68 -78 0 -9 6 -16 14 -16 8 0 13
8 11 18 -2 9 -4 17 -5 17 -1 0 -3 9 -5 20 -2 11 -11 25 -19 31 -9 6 -12 14 -8
19 4 4 -3 4 -15 1 -17 -5 -26 -1 -39 19 -13 20 -19 23 -25 13 -6 -9 -9 -8 -9
7 -1 19 -1 19 -14 2 -12 -16 -14 -16 -20 -1 -9 23 -7 31 7 32 22 2 42 8 64 20
12 7 28 12 36 12 15 0 27 21 27 43 0 7 -7 3 -15 -7 -8 -11 -15 -15 -15 -10 0
13 -88 35 -95 24 -7 -11 -58 -9 -73 3 -7 5 -15 7 -19 4 -3 -4 -12 -2 -20 5
-11 8 -12 7 -7 -6z m-96 -101 c0 -7 -30 -13 -34 -7 -3 4 4 9 15 9 10 1 19 0
19 -2z"/>
<path d="M2484 3239 c-3 -6 -1 -16 4 -21 8 -8 11 -5 9 11 -1 24 -3 25 -13 10z"/>
<path d="M3160 3230 c0 -5 -9 -10 -19 -10 -25 0 -36 -15 -13 -17 51 -4 65 -9
70 -25 2 -10 8 -15 13 -12 13 8 -14 44 -33 44 -11 0 -15 5 -12 15 4 8 3 15 0
15 -3 0 -6 -4 -6 -10z"/>
<path d="M2465 3091 c-3 -5 -1 -12 5 -16 5 -3 10 1 10 9 0 18 -6 21 -15 7z"/>
<path d="M2490 3066 c0 -2 7 -7 16 -10 8 -3 12 -2 9 4 -6 10 -25 14 -25 6z"/>
<path d="M2815 2526 c0 -49 17 -97 41 -123 7 -7 14 -18 16 -24 2 -6 17 -13 32
-14 20 -3 25 0 18 7 -6 6 -8 18 -3 27 4 9 6 22 5 29 -1 6 -2 16 -3 22 0 5 -7
7 -15 4 -8 -3 -17 0 -21 5 -3 6 -11 8 -17 5 -7 -4 -8 -2 -4 4 4 6 14 9 24 6
15 -5 15 -4 -1 9 -12 10 -14 16 -6 19 8 3 7 9 -5 21 -9 9 -16 19 -16 23 1 3
-9 12 -22 18 -24 13 -24 12 -23 -38z m85 -90 c0 -2 -7 -7 -16 -10 -8 -3 -12
-2 -9 4 6 10 25 14 25 6z m10 -36 c-5 -10 -6 -21 -2 -25 4 -5 1 -5 -5 -1 -18
10 -16 43 1 43 11 0 12 -5 6 -17z"/>
<path d="M2572 2350 c0 -14 2 -19 5 -12 2 6 2 18 0 25 -3 6 -5 1 -5 -13z"/>
<path d="M2923 2332 c10 -10 14 -22 10 -27 -5 -4 -2 -5 4 -1 10 5 10 11 0 26
-6 11 -16 20 -21 20 -5 0 -2 -8 7 -18z"/>
<path d="M2826 2193 c-6 -14 -5 -15 5 -6 7 7 10 15 7 18 -3 3 -9 -2 -12 -12z"/>
<path d="M2515 2130 c-3 -5 1 -10 9 -10 8 0 18 5 21 10 3 6 -1 10 -9 10 -8 0
-18 -4 -21 -10z"/>
<path d="M2348 2113 c7 -3 16 -2 19 1 4 3 -2 6 -13 5 -11 0 -14 -3 -6 -6z"/>
<path d="M2456 1962 c-29 -48 -32 -57 -18 -57 4 0 12 -4 19 -8 6 -4 15 -2 19
4 3 6 0 15 -7 20 -10 6 -10 9 -2 9 7 0 10 6 7 13 -3 8 3 20 12 28 10 8 15 9
11 2 -4 -6 -2 -15 5 -19 7 -4 10 -4 6 1 -4 4 1 15 10 24 10 9 13 13 8 9 -16
-13 -28 -9 -22 7 13 34 -21 11 -48 -33z"/>
<path d="M2337 1885 c-4 -8 -3 -16 1 -19 4 -3 9 4 9 15 2 23 -3 25 -10 4z"/>
<path d="M2295 1491 c-3 -5 -2 -12 3 -15 5 -3 9 1 9 9 0 17 -3 19 -12 6z"/>
<path d="M2260 1410 c0 -5 5 -10 11 -10 5 0 7 5 4 10 -3 6 -8 10 -11 10 -2 0
-4 -4 -4 -10z"/>
<path d="M2210 1030 c0 -5 5 -10 11 -10 5 0 7 5 4 10 -3 6 -8 10 -11 10 -2 0
-4 -4 -4 -10z"/>
<path d="M1866 818 c3 -5 10 -6 15 -3 13 9 11 12 -6 12 -8 0 -12 -4 -9 -9z"/>
<path d="M1966 782 c-3 -5 1 -9 9 -9 8 0 12 4 9 9 -3 4 -7 8 -9 8 -2 0 -6 -4
-9 -8z"/>
<path d="M2007 753 c3 -7 6 -13 8 -13 2 0 5 6 8 13 3 8 -1 14 -8 14 -7 0 -11
-6 -8 -14z"/>
<path d="M1840 739 c0 -4 6 -9 13 -12 8 -3 14 0 14 7 0 7 -6 13 -14 13 -7 0
-13 -4 -13 -8z"/>
<path d="M1957 743 c-8 -7 11 -33 24 -33 5 0 9 5 9 10 0 6 -6 9 -12 8 -7 -2
-12 3 -10 10 2 13 -1 15 -11 5z"/>
<path d="M2013 724 c8 -9 -11 -44 -24 -44 -6 0 -7 5 -4 10 3 6 1 10 -4 10 -6
0 -11 -7 -11 -15 0 -8 4 -15 10 -15 5 0 7 -6 4 -13 -7 -19 -36 -17 -51 2 -14
19 -6 34 14 27 8 -3 11 -1 8 4 -15 24 -59 -7 -49 -33 7 -19 -28 -40 -44 -27
-9 7 -9 7 -2 -2 6 -7 19 -13 30 -13 11 0 19 -4 17 -10 -1 -5 -6 -8 -12 -7 -5
2 -6 0 -2 -5 5 -4 12 -8 15 -8 4 0 14 -4 22 -9 12 -7 13 -6 3 4 -8 9 -9 19 -2
31 10 19 32 21 59 4 12 -7 13 -6 4 6 -11 15 5 61 21 59 5 0 9 11 11 25 1 14
-2 25 -8 25 -6 0 -8 -3 -5 -6z m-79 -96 c-9 -14 -23 2 -17 18 4 12 8 13 14 3
4 -7 5 -17 3 -21z"/>
<path d="M1844 695 c-4 -8 -11 -12 -17 -8 -6 3 -7 1 -3 -5 10 -16 14 -15 26 8
6 11 8 20 5 20 -3 0 -8 -7 -11 -15z"/>
<path d="M1875 691 c-3 -5 -2 -12 3 -15 5 -3 9 1 9 9 0 17 -3 19 -12 6z"/>
<path d="M1810 646 c0 -2 8 -10 18 -17 15 -13 16 -12 3 4 -13 16 -21 21 -21
13z"/>
<path d="M2013 629 c-2 -23 3 -25 10 -4 4 8 3 16 -1 19 -4 3 -9 -4 -9 -15z"/>
<path d="M1950 593 c0 -9 3 -13 7 -10 3 4 13 1 22 -5 10 -8 9 -4 -3 10 -23 26
-26 27 -26 5z"/>
<path d="M1841 556 c-26 -27 -16 -42 14 -20 11 8 14 14 6 14 -11 0 -11 3 -1
15 20 24 6 17 -19 -9z"/>
<path d="M1958 553 c7 -3 16 -2 19 1 4 3 -2 6 -13 5 -11 0 -14 -3 -6 -6z"/>
<path d="M2041 535 c1 -28 12 -50 27 -52 18 -4 15 22 -8 48 -18 22 -19 23 -19
4z"/>
<path d="M1854 453 c10 -11 37 -12 30 -2 -3 5 -12 9 -21 9 -9 0 -13 -3 -9 -7z"/>
<path d="M2840 380 c0 -5 7 -10 15 -10 8 0 15 5 15 10 0 6 -7 10 -15 10 -8 0
-15 -4 -15 -10z"/>
<path d="M2468 343 c7 -3 16 -2 19 1 4 3 -2 6 -13 5 -11 0 -14 -3 -6 -6z"/>
<path d="M2755 322 c-2 -2 -2 -9 1 -16 5 -13 71 -10 79 4 5 8 -72 19 -80 12z"/>
<path d="M2856 310 c7 -7 19 -7 35 -1 23 9 22 10 -10 10 -24 1 -32 -2 -25 -9z"/>
<path d="M1903 293 c9 -9 19 -14 23 -11 10 10 -6 28 -24 28 -15 0 -15 -1 1
-17z"/>
<path d="M2369 275 c-16 -6 -27 -13 -24 -17 4 -4 12 -5 18 -2 7 2 41 6 75 8
35 2 69 9 75 15 14 14 -99 11 -144 -4z"/>
<path d="M875 260 c4 -6 11 -8 16 -5 14 9 11 15 -7 15 -8 0 -12 -5 -9 -10z"/>
<path d="M732 234 c-19 -18 -21 -22 -7 -16 22 11 26 12 55 12 26 0 26 16 0 23
-14 3 -30 -3 -48 -19z"/>
<path d="M2193 253 c-26 -9 -12 -19 22 -15 19 2 35 7 35 11 0 7 -40 10 -57 4z"/>
<path d="M2270 256 c0 -2 11 -6 25 -8 14 -3 25 -1 25 3 0 5 -11 9 -25 9 -14 0
-25 -2 -25 -4z"/>
<path d="M2800 219 c0 -5 5 -7 10 -4 6 3 10 8 10 11 0 2 -4 4 -10 4 -5 0 -10
-5 -10 -11z"/>
<path d="M1010 210 c0 -6 7 -10 15 -10 8 0 15 2 15 4 0 2 -7 6 -15 10 -8 3
-15 1 -15 -4z"/>
<path d="M1985 210 c3 -5 8 -10 11 -10 2 0 4 5 4 10 0 6 -5 10 -11 10 -5 0 -7
-4 -4 -10z"/>
<path d="M2350 208 c0 -4 9 -8 20 -8 11 0 20 4 20 8 0 4 -9 8 -20 8 -11 0 -20
-4 -20 -8z"/>
<path d="M900 200 c0 -5 5 -10 10 -10 6 0 10 5 10 10 0 6 -4 10 -10 10 -5 0
-10 -4 -10 -10z"/>
<path d="M2275 200 l-20 -9 20 0 c11 0 27 4 35 9 13 9 13 10 0 9 -8 0 -24 -4
-35 -9z"/>
<path d="M3158 203 c7 -3 16 -2 19 1 4 3 -2 6 -13 5 -11 0 -14 -3 -6 -6z"/>
<path d="M2520 179 c0 -6 -9 -8 -20 -4 -14 5 -20 2 -20 -9 0 -9 -4 -16 -9 -16
-5 0 -7 -10 -3 -22 5 -19 4 -20 -10 -8 -9 8 -15 19 -13 25 1 5 0 7 -2 2 -3 -4
-9 -5 -14 -2 -5 4 -6 -1 -3 -9 3 -9 1 -16 -5 -16 -6 0 -11 5 -11 11 0 8 -4 8
-12 2 -7 -6 -20 -11 -28 -11 -8 0 -25 -4 -38 -7 -18 -6 -21 -4 -16 9 7 18 -12
46 -30 46 -6 0 -3 -7 6 -14 22 -16 13 -26 -24 -26 -15 0 -28 -4 -28 -8 0 -5
13 -7 29 -4 20 3 30 -1 34 -13 4 -9 3 -14 -3 -10 -6 3 -15 3 -21 -1 -8 -4 -3
-12 12 -20 15 -8 18 -13 9 -13 -8 -1 -21 3 -29 8 -10 7 -20 4 -31 -10 -10 -10
-20 -15 -24 -12 -4 4 -4 -1 0 -12 5 -11 9 -14 12 -7 2 7 8 10 13 6 5 -3 9 1 9
8 0 9 3 9 10 -2 5 -8 10 -10 10 -5 0 6 9 11 19 12 12 1 18 -3 15 -11 -3 -7
-15 -12 -27 -11 -12 1 -30 -2 -39 -6 -12 -7 -21 -3 -32 13 -9 12 -19 18 -23
14 -4 -4 -1 -11 6 -15 7 -5 11 -14 7 -19 -4 -8 25 -10 94 -9 62 0 100 5 100
12 0 7 3 7 8 0 10 -16 33 -12 64 8 15 10 31 16 36 14 15 -10 31 8 35 37 3 27
47 71 47 48 0 -6 9 -8 20 -5 35 9 22 22 -20 20 -30 -2 -40 1 -41 13 0 11 -3 9
-10 -5 -7 -16 -8 -13 -4 13 2 17 2 32 0 32 -3 0 -5 -5 -5 -11z m-175 -129 c-3
-5 -11 -10 -16 -10 -6 0 -7 5 -4 10 3 6 11 10 16 10 6 0 7 -4 4 -10z"/>
<path d="M928 173 c7 -3 16 -2 19 1 4 3 -2 6 -13 5 -11 0 -14 -3 -6 -6z"/>
<path d="M620 149 c0 -7 3 -9 7 -6 3 4 13 1 21 -6 13 -10 14 -9 10 3 -6 19
-38 26 -38 9z"/>
<path d="M1005 140 c-19 -8 -19 -9 2 -9 12 -1 25 4 28 9 7 12 -2 12 -30 0z"/>
<path d="M2110 140 c0 -5 5 -10 11 -10 5 0 7 5 4 10 -3 6 -8 10 -11 10 -2 0
-4 -4 -4 -10z"/>
<path d="M2648 143 c-10 -2 -18 -9 -18 -15 0 -5 7 -7 16 -4 9 3 20 6 25 6 5 0
9 5 9 10 0 10 -3 11 -32 3z"/>
<path d="M1095 120 c-3 -6 1 -7 9 -4 18 7 21 14 7 14 -6 0 -13 -4 -16 -10z"/>
<path d="M1198 101 c2 -17 8 -34 13 -37 14 -8 10 30 -4 51 -13 16 -14 15 -9
-14z"/>
<path d="M798 103 c-6 -7 -9 -15 -7 -17 7 -6 71 15 65 21 -12 12 -46 10 -58
-4z"/>
<path d="M2136 110 c-11 -3 -15 -9 -10 -13 10 -6 42 9 34 16 -3 3 -14 1 -24
-3z"/>
<path d="M3245 111 c-2 -5 4 -11 15 -14 11 -3 20 -2 20 3 0 12 -28 21 -35 11z"/>
<path d="M957 103 c-4 -3 -7 -13 -7 -22 1 -13 3 -13 11 2 11 19 8 33 -4 20z"/>
<path d="M1235 101 c-6 -11 13 -26 22 -17 4 3 1 6 -6 6 -7 0 -9 5 -6 10 3 6 4
10 1 10 -3 0 -7 -4 -11 -9z"/>
<path d="M2090 100 c0 -5 5 -10 10 -10 6 0 10 5 10 10 0 6 -4 10 -10 10 -5 0
-10 -4 -10 -10z"/>
<path d="M2190 80 c-8 -5 -11 -12 -7 -16 4 -4 13 -2 19 4 15 15 7 24 -12 12z"/>
<path d="M1125 70 c-3 -5 -1 -10 4 -10 6 0 11 5 11 10 0 6 -2 10 -4 10 -3 0
-8 -4 -11 -10z"/>
<path d="M3264 72 c-6 -4 -13 -15 -17 -25 -4 -10 -11 -15 -17 -12 -5 3 -17 2
-26 -3 -14 -8 -13 -10 7 -14 30 -5 89 9 89 22 0 6 -5 10 -11 10 -5 0 -8 4 -4
9 7 12 -8 22 -21 13z"/>
<path d="M2106 62 c-3 -5 1 -9 9 -9 8 0 12 4 9 9 -7 10 -11 10 -18 0z"/>
<path d="M1220 37 c0 -4 -4 -5 -10 -2 -5 3 -10 1 -10 -4 0 -15 63 -8 68 7 2 8
-6 11 -22 10 -14 -1 -26 -6 -26 -11z"/>
<path d="M2150 41 c0 -8 -8 -11 -20 -8 -11 3 -20 1 -20 -4 0 -13 37 -11 45 2
4 6 4 13 1 16 -3 4 -6 1 -6 -6z"/>
<path d="M2050 20 c0 -5 5 -10 11 -10 5 0 7 5 4 10 -3 6 -8 10 -11 10 -2 0 -4
-4 -4 -10z"/>
<path d="M1020 10 c-8 -5 -10 -10 -5 -10 6 0 17 5 25 10 8 5 11 10 5 10 -5 0
-17 -5 -25 -10z"/>
<path d="M2158 3 c7 -3 16 -2 19 1 4 3 -2 6 -13 5 -11 0 -14 -3 -6 -6z"/>
</g>
</svg>
